<?xml version="1.0" encoding="UTF-8" standalone="no"?>
<svg
   xmlns:dc="http://purl.org/dc/elements/1.1/"
   xmlns:cc="http://creativecommons.org/ns#"
   xmlns:rdf="http://www.w3.org/1999/02/22-rdf-syntax-ns#"
   xmlns:svg="http://www.w3.org/2000/svg"
   xmlns="http://www.w3.org/2000/svg"
   xmlns:sodipodi="http://sodipodi.sourceforge.net/DTD/sodipodi-0.dtd"
   xmlns:inkscape="http://www.inkscape.org/namespaces/inkscape"
   sodipodi:docname="Icons.svg"
   inkscape:version="1.0 (4035a4fb49, 2020-05-01)"
   id="svg8"
   version="1.1"
   viewBox="0 0 210 297"
   height="297mm"
   width="210mm">
  <defs
     id="defs2" />
  <sodipodi:namedview
     inkscape:window-maximized="1"
     inkscape:window-y="-9"
     inkscape:window-x="-9"
     inkscape:window-height="1001"
     inkscape:window-width="1920"
     showgrid="false"
     inkscape:document-rotation="0"
     inkscape:current-layer="layer1"
     inkscape:document-units="mm"
     inkscape:cy="135.85227"
     inkscape:cx="967.61054"
     inkscape:zoom="1.7001789"
     inkscape:pageshadow="2"
     inkscape:pageopacity="0.0"
     borderopacity="1.0"
     bordercolor="#666666"
     pagecolor="#ffffff"
     id="base" />
  <metadata
     id="metadata5">
    <rdf:RDF>
      <cc:Work
         rdf:about="">
        <dc:format>image/svg+xml</dc:format>
        <dc:type
           rdf:resource="http://purl.org/dc/dcmitype/StillImage" />
        <dc:title />
      </cc:Work>
    </rdf:RDF>
  </metadata>
  <g
     id="layer1"
     inkscape:groupmode="layer"
     inkscape:label="Ebene 1">
    <path
       style="fill:#bdbdbd;fill-opacity:1;stroke:none;stroke-width:0.529;stroke-linecap:square;stroke-linejoin:miter;stroke-miterlimit:4;stroke-dasharray:none;stroke-opacity:1;paint-order:normal"
       d="M 56.637882,39.336615 H 173.15258 V 109.97485 H 56.637882 Z"
       id="rect953"
       inkscape:connector-curvature="0" />
    <g
       id="g1024"
       style="fill:#ffffff;fill-opacity:1">
      <path
         d="m 60.75325,96.240624 h 5.166197 c 1.666486,0 3.008099,1.147614 3.008099,2.573125 v 6.036141 c 0,1.42551 -1.341613,2.57313 -3.008099,2.57313 H 60.75325 c -1.666486,0 -3.008098,-1.14762 -3.008098,-2.57313 v -6.036141 c 0,-1.425511 1.341612,-2.573125 3.008098,-2.573125 z"
         style="fill:#ffffff;fill-opacity:1;stroke:none;stroke-width:0.502708;stroke-linecap:square;stroke-opacity:1"
         id="path1052"
         inkscape:connector-curvature="0" />
      <path
         id="path1054"
         style="fill:#ffffff;fill-opacity:1;stroke:none;stroke-width:0.502708;stroke-linecap:square;stroke-opacity:1"
         d="m 76.073484,96.240624 h 5.166197 c 1.666486,0 3.008099,1.147614 3.008099,2.573125 v 6.036141 c 0,1.42551 -1.341613,2.57313 -3.008099,2.57313 h -5.166197 c -1.666486,0 -3.008098,-1.14762 -3.008098,-2.57313 v -6.036141 c 0,-1.425511 1.341612,-2.573125 3.008098,-2.573125 z"
         inkscape:connector-curvature="0" />
      <path
         id="path1056"
         style="fill:#ffffff;fill-opacity:1;stroke:none;stroke-width:0.502708;stroke-linecap:square;stroke-opacity:1"
         d="m 91.393726,96.240624 h 5.166197 c 1.666486,0 3.008099,1.147614 3.008099,2.573125 v 6.036141 c 0,1.42551 -1.341613,2.57313 -3.008099,2.57313 h -5.166197 c -1.666486,0 -3.008098,-1.14762 -3.008098,-2.57313 v -6.036141 c 0,-1.425511 1.341612,-2.573125 3.008098,-2.573125 z"
         inkscape:connector-curvature="0" />
      <path
         d="m 106.71397,96.240624 h 5.1662 c 1.66649,0 3.0081,1.147614 3.0081,2.573125 v 6.036141 c 0,1.42551 -1.34161,2.57313 -3.0081,2.57313 h -5.1662 c -1.66648,0 -3.0081,-1.14762 -3.0081,-2.57313 v -6.036141 c 0,-1.425511 1.34162,-2.573125 3.0081,-2.573125 z"
         style="fill:#ffffff;fill-opacity:1;stroke:none;stroke-width:0.502708;stroke-linecap:square;stroke-opacity:1"
         id="path1058"
         inkscape:connector-curvature="0" />
      <path
         d="m 122.03421,96.240624 h 5.16619 c 1.66649,0 3.0081,1.147614 3.0081,2.573125 v 6.036141 c 0,1.42551 -1.34161,2.57313 -3.0081,2.57313 h -5.16619 c -1.66649,0 -3.0081,-1.14762 -3.0081,-2.57313 v -6.036141 c 0,-1.425511 1.34161,-2.573125 3.0081,-2.573125 z"
         style="fill:#ffffff;fill-opacity:1;stroke:none;stroke-width:0.502708;stroke-linecap:square;stroke-opacity:1"
         id="path1060"
         inkscape:connector-curvature="0" />
      <path
         id="path1062"
         style="fill:#ffffff;fill-opacity:1;stroke:none;stroke-width:0.502708;stroke-linecap:square;stroke-opacity:1"
         d="m 137.35446,96.240624 h 5.1662 c 1.66649,0 3.0081,1.147614 3.0081,2.573125 v 6.036141 c 0,1.42551 -1.34161,2.57313 -3.0081,2.57313 h -5.1662 c -1.66648,0 -3.0081,-1.14762 -3.0081,-2.57313 v -6.036141 c 0,-1.425511 1.34162,-2.573125 3.0081,-2.573125 z"
         inkscape:connector-curvature="0" />
      <path
         d="m 152.67469,96.240624 h 5.1662 c 1.66648,0 3.0081,1.147614 3.0081,2.573125 v 6.036141 c 0,1.42551 -1.34162,2.57313 -3.0081,2.57313 h -5.1662 c -1.66648,0 -3.0081,-1.14762 -3.0081,-2.57313 v -6.036141 c 0,-1.425511 1.34162,-2.573125 3.0081,-2.573125 z"
         style="fill:#ffffff;fill-opacity:1;stroke:none;stroke-width:0.502708;stroke-linecap:square;stroke-opacity:1"
         id="path1064"
         inkscape:connector-curvature="0" />
      <path
         inkscape:connector-curvature="0"
         transform="scale(0.26458333)"
         id="path1066"
         d="m 634.94141,363.74414 c -6.29851,0 -11.36914,4.33685 -11.36914,9.72461 v 22.81445 c 0,5.38776 5.07063,9.72461 11.36914,9.72461 h 19.52539 c 0.0719,0 0.14133,-0.009 0.21289,-0.01 v -42.24414 c -0.0716,-10e-4 -0.14101,-0.01 -0.21289,-0.01 z"
         style="fill:#ffffff;fill-opacity:1;stroke:none;stroke-width:1.9;stroke-linecap:square;stroke-opacity:1" />
    </g>
    <g
       id="g1014"
       style="fill:#ffffff;fill-opacity:1">
      <path
         inkscape:connector-curvature="0"
         id="path1036"
         transform="scale(0.26458333)"
         d="m 634.94141,158.66406 c -6.29851,0 -11.36914,4.33685 -11.36914,9.72461 v 22.81445 c 0,5.38776 5.07063,9.72461 11.36914,9.72461 h 19.52539 c 0.0719,0 0.14133,-0.009 0.21289,-0.01 v -42.24414 c -0.0716,-10e-4 -0.14101,-0.01 -0.21289,-0.01 z"
         style="fill:#ffffff;fill-opacity:1;stroke:none;stroke-width:1.9;stroke-linecap:square;stroke-opacity:1" />
      <path
         id="rect1013"
         style="fill:#ffffff;fill-opacity:1;stroke:none;stroke-width:0.502708;stroke-linecap:square;stroke-opacity:1"
         d="m 60.75325,41.979805 h 5.166197 c 1.666486,0 3.008099,1.147614 3.008099,2.573125 v 6.036144 c 0,1.425511 -1.341613,2.573125 -3.008099,2.573125 H 60.75325 c -1.666486,0 -3.008098,-1.147614 -3.008098,-2.573125 V 44.55293 c 0,-1.425511 1.341612,-2.573125 3.008098,-2.573125 z"
         inkscape:connector-curvature="0" />
      <path
         d="m 76.073484,41.979805 h 5.166197 c 1.666486,0 3.008099,1.147614 3.008099,2.573125 v 6.036144 c 0,1.425511 -1.341613,2.573125 -3.008099,2.573125 h -5.166197 c -1.666486,0 -3.008098,-1.147614 -3.008098,-2.573125 V 44.55293 c 0,-1.425511 1.341612,-2.573125 3.008098,-2.573125 z"
         style="fill:#ffffff;fill-opacity:1;stroke:none;stroke-width:0.502708;stroke-linecap:square;stroke-opacity:1"
         id="path1016"
         inkscape:connector-curvature="0" />
      <path
         d="m 91.393726,41.979805 h 5.166197 c 1.666486,0 3.008099,1.147614 3.008099,2.573125 v 6.036144 c 0,1.425511 -1.341613,2.573125 -3.008099,2.573125 h -5.166197 c -1.666486,0 -3.008098,-1.147614 -3.008098,-2.573125 V 44.55293 c 0,-1.425511 1.341612,-2.573125 3.008098,-2.573125 z"
         style="fill:#ffffff;fill-opacity:1;stroke:none;stroke-width:0.502708;stroke-linecap:square;stroke-opacity:1"
         id="path1018"
         inkscape:connector-curvature="0" />
      <path
         id="path1020"
         style="fill:#ffffff;fill-opacity:1;stroke:none;stroke-width:0.502708;stroke-linecap:square;stroke-opacity:1"
         d="m 106.71397,41.979805 h 5.1662 c 1.66649,0 3.0081,1.147614 3.0081,2.573125 v 6.036144 c 0,1.425511 -1.34161,2.573125 -3.0081,2.573125 h -5.1662 c -1.66648,0 -3.0081,-1.147614 -3.0081,-2.573125 V 44.55293 c 0,-1.425511 1.34162,-2.573125 3.0081,-2.573125 z"
         inkscape:connector-curvature="0" />
      <path
         id="path1022"
         style="fill:#ffffff;fill-opacity:1;stroke:none;stroke-width:0.502708;stroke-linecap:square;stroke-opacity:1"
         d="m 122.03421,41.979805 h 5.16619 c 1.66649,0 3.0081,1.147614 3.0081,2.573125 v 6.036144 c 0,1.425511 -1.34161,2.573125 -3.0081,2.573125 h -5.16619 c -1.66649,0 -3.0081,-1.147614 -3.0081,-2.573125 V 44.55293 c 0,-1.425511 1.34161,-2.573125 3.0081,-2.573125 z"
         inkscape:connector-curvature="0" />
      <path
         d="m 137.35446,41.979805 h 5.1662 c 1.66649,0 3.0081,1.147614 3.0081,2.573125 v 6.036144 c 0,1.425511 -1.34161,2.573125 -3.0081,2.573125 h -5.1662 c -1.66648,0 -3.0081,-1.147614 -3.0081,-2.573125 V 44.55293 c 0,-1.425511 1.34162,-2.573125 3.0081,-2.573125 z"
         style="fill:#ffffff;fill-opacity:1;stroke:none;stroke-width:0.502708;stroke-linecap:square;stroke-opacity:1"
         id="path1024"
         inkscape:connector-curvature="0" />
      <path
         id="path1034"
         style="fill:#ffffff;fill-opacity:1;stroke:none;stroke-width:0.502708;stroke-linecap:square;stroke-opacity:1"
         d="m 152.67469,41.979805 h 5.1662 c 1.66648,0 3.0081,1.147614 3.0081,2.573125 v 6.036144 c 0,1.425511 -1.34162,2.573125 -3.0081,2.573125 h -5.1662 c -1.66648,0 -3.0081,-1.147614 -3.0081,-2.573125 V 44.55293 c 0,-1.425511 1.34162,-2.573125 3.0081,-2.573125 z"
         inkscape:connector-curvature="0" />
    </g>
    <g
       id="g1029"
       style="fill:#ffffff;fill-opacity:1">
      <path
         inkscape:connector-curvature="0"
         id="rect1074"
         transform="scale(0.26458333)"
         d="M 547.26367,227.57812 V 339.20508 H 654.67969 V 227.57812 Z"
         style="fill:#ffffff;fill-opacity:1;stroke:none;stroke-width:1.9;stroke-linecap:square;stroke-opacity:1" />
      <rect
         style="fill:#ffffff;fill-opacity:1;stroke:none;stroke-width:0.502708;stroke-linecap:square;stroke-opacity:1"
         id="rect1070"
         width="33.493523"
         height="29.53437"
         x="56.25433"
         y="60.213482"
         rx="0"
         ry="0" />
      <rect
         ry="0"
         rx="0"
         y="60.213482"
         x="94.113014"
         height="29.53437"
         width="46.24762"
         id="rect1072"
         style="fill:#ffffff;fill-opacity:1;stroke:none;stroke-width:0.502708;stroke-linecap:square;stroke-opacity:1" />
    </g>
    <g
       id="g1145">
      <g
         id="g1092"
         transform="translate(0,84.710984)" />
      <g
         transform="translate(0,138.9718)"
         id="g1110" />
    </g>
    <circle
       inkscape:export-ydpi="138.44"
       inkscape:export-xdpi="138.44"
       r="41.282234"
       cy="190.35625"
       cx="-54.982391"
       id="path1167"
       style="fill:#29d300;fill-opacity:1;stroke:none;stroke-width:0.50270802;stroke-linecap:square;stroke-opacity:1" />
    <g
       inkscape:export-ydpi="138.44"
       inkscape:export-xdpi="138.44"
       transform="matrix(0.56956494,0,0,0.56956494,-121.9391,148.39161)"
       style="fill:#ffffff;fill-opacity:1;stroke-width:1.75573003"
       id="g1232">
      <g
         style="fill:#ffffff;fill-opacity:1;stroke-width:1.75573003"
         id="g1185">
        <path
           id="path1169"
           style="fill:#ffffff;fill-opacity:1;stroke:none;stroke-width:0.88261801;stroke-linecap:square;stroke-opacity:1"
           d="m 60.75325,41.979805 h 5.166197 c 1.666486,0 3.008099,1.147614 3.008099,2.573125 v 6.036144 c 0,1.425511 -1.341613,2.573125 -3.008099,2.573125 H 60.75325 c -1.666486,0 -3.008098,-1.147614 -3.008098,-2.573125 V 44.55293 c 0,-1.425511 1.341612,-2.573125 3.008098,-2.573125 z"
           inkscape:connector-curvature="0" />
        <path
           d="m 76.073484,41.979805 h 5.166197 c 1.666486,0 3.008099,1.147614 3.008099,2.573125 v 6.036144 c 0,1.425511 -1.341613,2.573125 -3.008099,2.573125 h -5.166197 c -1.666486,0 -3.008098,-1.147614 -3.008098,-2.573125 V 44.55293 c 0,-1.425511 1.341612,-2.573125 3.008098,-2.573125 z"
           style="fill:#ffffff;fill-opacity:1;stroke:none;stroke-width:0.88261801;stroke-linecap:square;stroke-opacity:1"
           id="path1171"
           inkscape:connector-curvature="0" />
        <path
           d="m 91.393726,41.979805 h 5.166197 c 1.666486,0 3.008099,1.147614 3.008099,2.573125 v 6.036144 c 0,1.425511 -1.341613,2.573125 -3.008099,2.573125 h -5.166197 c -1.666486,0 -3.008098,-1.147614 -3.008098,-2.573125 V 44.55293 c 0,-1.425511 1.341612,-2.573125 3.008098,-2.573125 z"
           style="fill:#ffffff;fill-opacity:1;stroke:none;stroke-width:0.88261801;stroke-linecap:square;stroke-opacity:1"
           id="path1173"
           inkscape:connector-curvature="0" />
        <path
           id="path1175"
           style="fill:#ffffff;fill-opacity:1;stroke:none;stroke-width:0.88261801;stroke-linecap:square;stroke-opacity:1"
           d="m 106.71397,41.979805 h 5.1662 c 1.66649,0 3.0081,1.147614 3.0081,2.573125 v 6.036144 c 0,1.425511 -1.34161,2.573125 -3.0081,2.573125 h -5.1662 c -1.66648,0 -3.0081,-1.147614 -3.0081,-2.573125 V 44.55293 c 0,-1.425511 1.34162,-2.573125 3.0081,-2.573125 z"
           inkscape:connector-curvature="0" />
        <path
           id="path1177"
           style="fill:#ffffff;fill-opacity:1;stroke:none;stroke-width:0.88261801;stroke-linecap:square;stroke-opacity:1"
           d="m 122.03421,41.979805 h 5.16619 c 1.66649,0 3.0081,1.147614 3.0081,2.573125 v 6.036144 c 0,1.425511 -1.34161,2.573125 -3.0081,2.573125 h -5.16619 c -1.66649,0 -3.0081,-1.147614 -3.0081,-2.573125 V 44.55293 c 0,-1.425511 1.34161,-2.573125 3.0081,-2.573125 z"
           inkscape:connector-curvature="0" />
        <path
           d="m 137.35446,41.979805 h 5.1662 c 1.66649,0 3.0081,1.147614 3.0081,2.573125 v 6.036144 c 0,1.425511 -1.34161,2.573125 -3.0081,2.573125 h -5.1662 c -1.66648,0 -3.0081,-1.147614 -3.0081,-2.573125 V 44.55293 c 0,-1.425511 1.34162,-2.573125 3.0081,-2.573125 z"
           style="fill:#ffffff;fill-opacity:1;stroke:none;stroke-width:0.88261801;stroke-linecap:square;stroke-opacity:1"
           id="path1179"
           inkscape:connector-curvature="0" />
        <path
           id="path1181"
           style="fill:#ffffff;fill-opacity:1;stroke:none;stroke-width:0.88261801;stroke-linecap:square;stroke-opacity:1"
           d="m 152.67469,41.979805 h 5.1662 c 1.66648,0 3.0081,1.147614 3.0081,2.573125 v 6.036144 c 0,1.425511 -1.34162,2.573125 -3.0081,2.573125 h -5.1662 c -1.66648,0 -3.0081,-1.147614 -3.0081,-2.573125 V 44.55293 c 0,-1.425511 1.34162,-2.573125 3.0081,-2.573125 z"
           inkscape:connector-curvature="0" />
        <path
           d="m 167.99493,41.979805 h 5.1662 c 1.66649,0 3.0081,1.147614 3.0081,2.573125 v 6.036144 c 0,1.425511 -1.34161,2.573125 -3.0081,2.573125 h -5.1662 c -1.66648,0 -3.0081,-1.147614 -3.0081,-2.573125 V 44.55293 c 0,-1.425511 1.34162,-2.573125 3.0081,-2.573125 z"
           style="fill:#ffffff;fill-opacity:1;stroke:none;stroke-width:0.88261801;stroke-linecap:square;stroke-opacity:1"
           id="path1183"
           inkscape:connector-curvature="0" />
      </g>
      <g
         style="fill:#ffffff;fill-opacity:1;stroke-width:1.75573003"
         transform="translate(0,54.260819)"
         id="g1203">
        <path
           d="m 60.75325,41.979805 h 5.166197 c 1.666486,0 3.008099,1.147614 3.008099,2.573125 v 6.036144 c 0,1.425511 -1.341613,2.573125 -3.008099,2.573125 H 60.75325 c -1.666486,0 -3.008098,-1.147614 -3.008098,-2.573125 V 44.55293 c 0,-1.425511 1.341612,-2.573125 3.008098,-2.573125 z"
           style="fill:#ffffff;fill-opacity:1;stroke:none;stroke-width:0.88261801;stroke-linecap:square;stroke-opacity:1"
           id="path1187"
           inkscape:connector-curvature="0" />
        <path
           id="path1189"
           style="fill:#ffffff;fill-opacity:1;stroke:none;stroke-width:0.88261801;stroke-linecap:square;stroke-opacity:1"
           d="m 76.073484,41.979805 h 5.166197 c 1.666486,0 3.008099,1.147614 3.008099,2.573125 v 6.036144 c 0,1.425511 -1.341613,2.573125 -3.008099,2.573125 h -5.166197 c -1.666486,0 -3.008098,-1.147614 -3.008098,-2.573125 V 44.55293 c 0,-1.425511 1.341612,-2.573125 3.008098,-2.573125 z"
           inkscape:connector-curvature="0" />
        <path
           id="path1191"
           style="fill:#ffffff;fill-opacity:1;stroke:none;stroke-width:0.88261801;stroke-linecap:square;stroke-opacity:1"
           d="m 91.393726,41.979805 h 5.166197 c 1.666486,0 3.008099,1.147614 3.008099,2.573125 v 6.036144 c 0,1.425511 -1.341613,2.573125 -3.008099,2.573125 h -5.166197 c -1.666486,0 -3.008098,-1.147614 -3.008098,-2.573125 V 44.55293 c 0,-1.425511 1.341612,-2.573125 3.008098,-2.573125 z"
           inkscape:connector-curvature="0" />
        <path
           d="m 106.71397,41.979805 h 5.1662 c 1.66649,0 3.0081,1.147614 3.0081,2.573125 v 6.036144 c 0,1.425511 -1.34161,2.573125 -3.0081,2.573125 h -5.1662 c -1.66648,0 -3.0081,-1.147614 -3.0081,-2.573125 V 44.55293 c 0,-1.425511 1.34162,-2.573125 3.0081,-2.573125 z"
           style="fill:#ffffff;fill-opacity:1;stroke:none;stroke-width:0.88261801;stroke-linecap:square;stroke-opacity:1"
           id="path1193"
           inkscape:connector-curvature="0" />
        <path
           d="m 122.03421,41.979805 h 5.16619 c 1.66649,0 3.0081,1.147614 3.0081,2.573125 v 6.036144 c 0,1.425511 -1.34161,2.573125 -3.0081,2.573125 h -5.16619 c -1.66649,0 -3.0081,-1.147614 -3.0081,-2.573125 V 44.55293 c 0,-1.425511 1.34161,-2.573125 3.0081,-2.573125 z"
           style="fill:#ffffff;fill-opacity:1;stroke:none;stroke-width:0.88261801;stroke-linecap:square;stroke-opacity:1"
           id="path1195"
           inkscape:connector-curvature="0" />
        <path
           id="path1197"
           style="fill:#ffffff;fill-opacity:1;stroke:none;stroke-width:0.88261801;stroke-linecap:square;stroke-opacity:1"
           d="m 137.35446,41.979805 h 5.1662 c 1.66649,0 3.0081,1.147614 3.0081,2.573125 v 6.036144 c 0,1.425511 -1.34161,2.573125 -3.0081,2.573125 h -5.1662 c -1.66648,0 -3.0081,-1.147614 -3.0081,-2.573125 V 44.55293 c 0,-1.425511 1.34162,-2.573125 3.0081,-2.573125 z"
           inkscape:connector-curvature="0" />
        <path
           d="m 152.67469,41.979805 h 5.1662 c 1.66648,0 3.0081,1.147614 3.0081,2.573125 v 6.036144 c 0,1.425511 -1.34162,2.573125 -3.0081,2.573125 h -5.1662 c -1.66648,0 -3.0081,-1.147614 -3.0081,-2.573125 V 44.55293 c 0,-1.425511 1.34162,-2.573125 3.0081,-2.573125 z"
           style="fill:#ffffff;fill-opacity:1;stroke:none;stroke-width:0.88261801;stroke-linecap:square;stroke-opacity:1"
           id="path1199"
           inkscape:connector-curvature="0" />
        <path
           id="path1201"
           style="fill:#ffffff;fill-opacity:1;stroke:none;stroke-width:0.88261801;stroke-linecap:square;stroke-opacity:1"
           d="m 167.99493,41.979805 h 5.1662 c 1.66649,0 3.0081,1.147614 3.0081,2.573125 v 6.036144 c 0,1.425511 -1.34161,2.573125 -3.0081,2.573125 h -5.1662 c -1.66648,0 -3.0081,-1.147614 -3.0081,-2.573125 V 44.55293 c 0,-1.425511 1.34162,-2.573125 3.0081,-2.573125 z"
           inkscape:connector-curvature="0" />
      </g>
      <rect
         ry="0"
         rx="0"
         y="60.213482"
         x="54.718716"
         height="29.53437"
         width="35.029137"
         id="rect1205"
         style="fill:#ffffff;fill-opacity:1;stroke:none;stroke-width:0.88261801;stroke-linecap:square;stroke-opacity:1" />
      <rect
         style="fill:#ffffff;fill-opacity:1;stroke:none;stroke-width:0.88261801;stroke-linecap:square;stroke-opacity:1"
         id="rect1207"
         width="46.24762"
         height="29.53437"
         x="94.113014"
         y="60.213482"
         rx="0"
         ry="0" />
      <rect
         ry="0"
         rx="0"
         y="60.213482"
         x="144.79707"
         height="29.53437"
         width="36.173882"
         id="rect1209"
         style="fill:#ffffff;fill-opacity:1;stroke:none;stroke-width:0.88261801;stroke-linecap:square;stroke-opacity:1" />
    </g>
    <circle
       inkscape:export-filename="C:\Vorhaben\Scheinertag.de\htdocs\assets\auswahl-button.png"
       style="fill:#9c00d3;fill-opacity:1;stroke:none;stroke-width:0.502708;stroke-linecap:square;stroke-opacity:1;stop-color:#000000"
       id="path1167-1"
       cx="67.756607"
       cy="273.41528"
       r="41.282234"
       inkscape:export-xdpi="138.44"
       inkscape:export-ydpi="138.44" />
    <g
       inkscape:export-ydpi="138"
       inkscape:export-xdpi="138"
       inkscape:export-filename="C:\Vorhaben\Scheinertag.de\htdocs\assets\auswahl-button.png"
       transform="translate(0.32574844)"
       id="g1300">
      <circle
         style="fill:#ffffff;fill-opacity:1;stroke:none;stroke-width:3.20101;stroke-linecap:square;stroke-miterlimit:4;stroke-dasharray:none;stroke-opacity:1;stop-color:#000000"
         id="path1291"
         cx="46.039749"
         cy="273.63248"
         r="8.252408" />
      <circle
         r="8.252408"
         cy="273.63248"
         cx="67.430855"
         id="circle1293"
         style="fill:#ffffff;fill-opacity:1;stroke:none;stroke-width:3.20101;stroke-linecap:square;stroke-miterlimit:4;stroke-dasharray:none;stroke-opacity:1;stop-color:#000000" />
      <circle
         style="fill:#ffffff;fill-opacity:1;stroke:none;stroke-width:3.20101;stroke-linecap:square;stroke-miterlimit:4;stroke-dasharray:none;stroke-opacity:1;stop-color:#000000"
         id="circle1295"
         cx="88.821968"
         cy="273.63248"
         r="8.252408" />
    </g>
    <circle
       inkscape:export-ydpi="138.44"
       inkscape:export-xdpi="138.44"
       r="41.282234"
       cy="273.41528"
       cx="167.21983"
       id="circle945"
       style="fill:#0000ff;fill-opacity:1;stroke:none;stroke-width:0.50270802;stroke-linecap:square;stroke-opacity:1"
       inkscape:export-filename="C:\Vorhaben\Scheinertag.de\htdocs\assets\auswahl-button.png" />
    <path
       style="fill:none;fill-opacity:1;stroke:#ffffff;stroke-width:10;stroke-linecap:round;stroke-linejoin:round;stroke-miterlimit:4;stroke-dasharray:none;stroke-opacity:1"
       id="path955"
       sodipodi:type="arc"
       sodipodi:cx="167.22012"
       sodipodi:cy="276.24347"
       sodipodi:rx="22.53124"
       sodipodi:ry="22.145304"
       sodipodi:start="6.0524038"
       sodipodi:end="3.3895822"
       sodipodi:open="true"
       d="m 189.15401,271.17799 a 22.53124,22.145304 0 0 1 -9.30885,23.40769 22.53124,22.145304 0 0 1 -25.56932,-0.21624 22.53124,22.145304 0 0 1 -8.89768,-23.56166" />
    <path
       style="fill:none;stroke:#fefefe;stroke-width:7;stroke-linecap:round;stroke-linejoin:miter;stroke-miterlimit:4;stroke-dasharray:none;stroke-opacity:1"
       d="m 132.79315,270.15501 15.0344,-8.41848 8.19812,14.06226"
       id="path963"
       inkscape:connector-curvature="0"
       sodipodi:nodetypes="ccc" />
    <path
       sodipodi:nodetypes="ccc"
       inkscape:connector-curvature="0"
       id="path965"
       d="m 200.84734,271.99775 -15.0344,-8.41848 -8.19812,14.06226"
       style="fill:none;stroke:#fefefe;stroke-width:7;stroke-linecap:round;stroke-linejoin:miter;stroke-miterlimit:4;stroke-dasharray:none;stroke-opacity:1" />
    <circle
       r="8.252408"
       cy="253.66949"
       cx="167.57152"
       id="circle969"
       style="fill:#ffffff;fill-opacity:1;stroke:none;stroke-width:3.20100999;stroke-linecap:square;stroke-miterlimit:4;stroke-dasharray:none;stroke-opacity:1" />
    <g
       id="g918"
       transform="translate(207.61502,-5.2210879)"
       inkscape:export-filename="H:\Vorhaben\Scheinertag.de\htdocs\assets\bilder-button.png"
       inkscape:export-xdpi="123.06"
       inkscape:export-ydpi="123.06">
      <circle
         inkscape:export-ydpi="138.44"
         inkscape:export-xdpi="138.44"
         r="41.282234"
         cy="185.42148"
         cx="-44.863644"
         id="path1167-6"
         style="fill:#fbff01;fill-opacity:1;stroke:none;stroke-width:0.50270802;stroke-linecap:square;stroke-opacity:1" />
      <rect
         rx="6.4756427"
         ry="9.7134571"
         y="158.82973"
         x="-110.77184"
         height="35.70713"
         width="39.686615"
         id="rect1266"
         style="fill:#ffffff;fill-opacity:1;stroke:#767676;stroke-width:3.20099998;stroke-linecap:square;stroke-miterlimit:4;stroke-dasharray:none;stroke-opacity:1"
         transform="rotate(-11.517846)" />
      <rect
         style="fill:#ffffff;fill-opacity:1;stroke:#767676;stroke-width:3.20099998;stroke-linecap:square;stroke-miterlimit:4;stroke-dasharray:none;stroke-opacity:1"
         id="rect1268"
         width="39.686615"
         height="35.70713"
         x="-57.90559"
         y="164.43195"
         ry="9.7134571"
         rx="6.4756427" />
      <path
         inkscape:connector-curvature="0"
         style="fill:none;stroke:#767676;stroke-width:3.20099998;stroke-linecap:butt;stroke-linejoin:miter;stroke-miterlimit:4;stroke-dasharray:none;stroke-opacity:1"
         d="m -57.47864,187.69454 8.73297,-14.02194 12.91494,26.19888"
         id="path1270" />
      <path
         inkscape:connector-curvature="0"
         style="fill:none;stroke:#767676;stroke-width:3.20099998;stroke-linecap:butt;stroke-linejoin:miter;stroke-miterlimit:4;stroke-dasharray:none;stroke-opacity:1"
         d="m -42.7187,185.97254 9.83996,-8.24096 13.03794,18.69592"
         id="path1272" />
      <circle
         style="fill:#ffffff;fill-opacity:1;stroke:#767676;stroke-width:3.20099998;stroke-linecap:square;stroke-miterlimit:4;stroke-dasharray:none;stroke-opacity:1"
         id="path1274"
         cx="-38.730694"
         cy="174.09344"
         r="2.7424967" />
    </g>
    <g
       id="g935"
       inkscape:export-xdpi="123"
       inkscape:export-ydpi="123">
      <rect
         rx="6.7322206"
         ry="6.7322206"
         y="141.29008"
         x="21.282526"
         height="53.640652"
         width="44.085228"
         id="rect1056"
         style="fill:none;fill-opacity:1;stroke:#606060;stroke-width:3;stroke-linecap:square;stroke-linejoin:miter;stroke-miterlimit:4;stroke-dasharray:none;stroke-opacity:1;paint-order:normal" />
      <path
         inkscape:connector-curvature="0"
         id="path1063"
         d="m 28.883426,166.63486 2.388856,2.82319 6.297891,-6.51506"
         style="fill:none;stroke:#74d455;stroke-width:3;stroke-linecap:round;stroke-linejoin:round;stroke-miterlimit:4;stroke-dasharray:none;stroke-opacity:1" />
      <path
         style="fill:none;stroke:#606060;stroke-width:3;stroke-linecap:round;stroke-linejoin:miter;stroke-miterlimit:4;stroke-dasharray:none;stroke-opacity:1"
         d="M 41.262039,170.44906 H 57.549685"
         id="path1071"
         inkscape:connector-curvature="0" />
      <path
         inkscape:connector-curvature="0"
         id="path1065"
         d="m 28.666257,177.46242 8.03524,7.16657"
         style="fill:none;stroke:#e51f1f;stroke-width:3;stroke-linecap:round;stroke-linejoin:round;stroke-miterlimit:4;stroke-dasharray:none;stroke-opacity:1" />
      <path
         style="fill:none;stroke:#e51f1f;stroke-width:3;stroke-linecap:round;stroke-linejoin:round;stroke-miterlimit:4;stroke-dasharray:none;stroke-opacity:1"
         d="m 36.701497,177.46242 -8.03524,7.16657"
         id="path1067"
         inkscape:connector-curvature="0" />
      <path
         inkscape:connector-curvature="0"
         id="path1073"
         d="M 41.262039,184.84615 H 57.549685"
         style="fill:none;stroke:#606060;stroke-width:3;stroke-linecap:round;stroke-linejoin:miter;stroke-miterlimit:4;stroke-dasharray:none;stroke-opacity:1" />
      <path
         style="fill:none;stroke:#74d455;stroke-width:3;stroke-linecap:round;stroke-linejoin:round;stroke-miterlimit:4;stroke-dasharray:none;stroke-opacity:1"
         d="m 28.883426,152.17603 2.388856,2.82319 6.297891,-6.51506"
         id="path1084"
         inkscape:connector-curvature="0" />
      <path
         inkscape:connector-curvature="0"
         id="path1086"
         d="M 41.262039,155.99023 H 57.549685"
         style="fill:none;stroke:#606060;stroke-width:3;stroke-linecap:round;stroke-linejoin:miter;stroke-miterlimit:4;stroke-dasharray:none;stroke-opacity:1" />
    </g>
    <g
       id="g1210"
       inkscape:export-filename="H:\Vorhaben\SQL-Online\htdocs\assets\graphics\rocket.png"
       inkscape:export-xdpi="123.06"
       inkscape:export-ydpi="123.06">
      <path
         inkscape:connector-curvature="0"
         id="path1155"
         d="m -160.0109,-43.83666 c 0,0 -17.4368,20.098056 -24.57008,38.6859635 -7.13328,18.5879085 -0.61392,79.8160115 -0.61392,79.8160115 h 25.184 25.18399 c 0,0 6.51885,-61.228103 -0.61443,-79.8160115 C -142.57462,-23.738604 -160.0109,-43.83666 -160.0109,-43.83666 Z"
         style="fill:none;stroke:#000000;stroke-width:5;stroke-linecap:round;stroke-linejoin:round;stroke-miterlimit:4;stroke-dasharray:none;stroke-opacity:1" />
      <circle
         r="9.0601225"
         cy="26.271238"
         cx="-160.01109"
         id="path1160"
         style="fill:none;fill-opacity:1;stroke:#000000;stroke-width:5;stroke-linecap:round;stroke-linejoin:round;stroke-miterlimit:4;stroke-dasharray:none;stroke-opacity:1;paint-order:normal" />
      <path
         inkscape:connector-curvature="0"
         id="path1162"
         d="m -187.03779,7.076061 h 54.36074"
         style="fill:none;stroke:#000000;stroke-width:3;stroke-linecap:butt;stroke-linejoin:miter;stroke-miterlimit:4;stroke-dasharray:none;stroke-opacity:1" />
      <circle
         style="fill:none;fill-opacity:1;stroke:#000000;stroke-width:5;stroke-linecap:round;stroke-linejoin:round;stroke-miterlimit:4;stroke-dasharray:none;stroke-opacity:1;paint-order:normal"
         id="circle1164"
         cx="-160.01109"
         cy="53.605167"
         r="9.0601225" />
      <path
         sodipodi:nodetypes="cscc"
         inkscape:connector-curvature="0"
         id="path1166"
         d="m -131.44856,32.260132 c 0,0 7.67807,4.606842 19.96298,19.348738 17.938376,21.526058 13.820525,42.382948 13.820525,42.382948 L -133.2913,67.579255"
         style="fill:none;stroke:#000000;stroke-width:5;stroke-linecap:butt;stroke-linejoin:miter;stroke-opacity:1;stroke-miterlimit:4;stroke-dasharray:none" />
      <path
         style="fill:none;stroke:#000000;stroke-width:5;stroke-linecap:butt;stroke-linejoin:miter;stroke-miterlimit:4;stroke-dasharray:none;stroke-opacity:1"
         d="m -188.50694,32.260132 c 0,0 -7.67807,4.606842 -19.96298,19.348738 -17.93838,21.526058 -13.82053,42.382948 -13.82053,42.382948 l 35.62625,-26.412563"
         id="path1168"
         inkscape:connector-curvature="0"
         sodipodi:nodetypes="cscc" />
      <g
         transform="translate(4.2997195)"
         id="g1190">
        <path
           style="fill:none;fill-opacity:1;stroke:#000000;stroke-width:5;stroke-linecap:round;stroke-linejoin:round;stroke-miterlimit:4;stroke-dasharray:none;stroke-opacity:1;paint-order:normal"
           d="m -173.84002,119.124 c 0,12.21258 -5.70513,22.11284 -5.70513,22.11284 0,0 -5.70513,-9.90025 -5.70513,-22.11284 0,-12.21259 2.55428,-22.112845 5.70513,-22.112841 3.15086,1.2e-5 5.70513,9.900261 5.70513,22.112841 z"
           id="path1170"
           inkscape:connector-curvature="0"
           sodipodi:nodetypes="scscs" />
        <path
           style="fill:none;stroke:#000000;stroke-width:5;stroke-linecap:butt;stroke-linejoin:miter;stroke-miterlimit:4;stroke-dasharray:none;stroke-opacity:1"
           d="m -182.63544,74.898318 -6.65598,13.20628 h 18.30396 l -5.46741,-12.899157"
           id="path1174"
           inkscape:connector-curvature="0" />
      </g>
      <g
         id="g1196"
         transform="translate(35.319124)">
        <path
           sodipodi:nodetypes="scscs"
           inkscape:connector-curvature="0"
           id="path1192"
           d="m -173.84002,119.124 c 0,12.21258 -5.70513,22.11284 -5.70513,22.11284 0,0 -5.70513,-9.90025 -5.70513,-22.11284 0,-12.21259 2.55428,-22.112845 5.70513,-22.112841 3.15086,1.2e-5 5.70513,9.900261 5.70513,22.112841 z"
           style="fill:none;fill-opacity:1;stroke:#000000;stroke-width:5;stroke-linecap:round;stroke-linejoin:round;stroke-miterlimit:4;stroke-dasharray:none;stroke-opacity:1;paint-order:normal" />
        <path
           inkscape:connector-curvature="0"
           id="path1194"
           d="m -182.63544,74.898318 -6.65598,13.20628 h 18.30396 l -5.46741,-12.899157"
           style="fill:none;stroke:#000000;stroke-width:5;stroke-linecap:butt;stroke-linejoin:miter;stroke-miterlimit:4;stroke-dasharray:none;stroke-opacity:1" />
      </g>
    </g>
    <g
       id="g1041">
      <path
         d="M 193.95916,-7.7871216 V 62.850945 H 310.86422 V 60.29916 h -5.17508 c -1.67206,0 -3.01819,-1.147458 -3.01819,-2.57297 v -6.036323 c 0,-1.425511 1.34613,-2.57297 3.01819,-2.57297 h 5.17508 V 6.0383911 h -5.17508 c -1.67206,0 -3.01819,-1.1474582 -3.01819,-2.5729697 v -6.0363239 c 0,-1.4255112 1.34613,-2.5729694 3.01819,-2.5729694 l 5.17508,-5.292e-4 V -7.787134 Z m 4.1293,2.6432497 h 5.18339 c 1.67206,0 3.01815,1.1474584 3.01815,2.5729694 v 6.0363239 c 0,1.425511 -1.34609,2.5729697 -3.01815,2.5729697 h -5.18339 c -1.67208,0 -3.01817,-1.1474587 -3.01817,-2.5729697 v -6.0363239 c 0,-1.425511 1.34609,-2.5729694 3.01817,-2.5729694 z m 15.37129,0 h 5.18392 c 1.67207,0 3.01815,1.1474584 3.01815,2.5729694 v 6.0363239 c 0,1.425511 -1.34608,2.5729697 -3.01815,2.5729697 h -5.18392 c -1.67206,0 -3.01815,-1.1474587 -3.01815,-2.5729697 v -6.0363239 c 0,-1.425511 1.34609,-2.5729694 3.01815,-2.5729694 z m 15.37182,0 h 5.18341 c 1.67207,0 3.01815,1.1474584 3.01815,2.5729694 v 6.0363239 c 0,1.425511 -1.34608,2.5729697 -3.01815,2.5729697 h -5.18341 c -1.67207,0 -3.01815,-1.1474587 -3.01815,-2.5729697 v -6.0363239 c 0,-1.425511 1.34608,-2.5729694 3.01815,-2.5729694 z m 15.37131,0 h 5.18339 c 1.67208,0 3.01868,1.1474584 3.01868,2.5729694 v 6.0363239 c 0,1.425511 -1.3466,2.5729697 -3.01868,2.5729697 h -5.18339 c -1.67206,0 -3.01816,-1.1474587 -3.01816,-2.5729697 v -6.0363239 c 0,-1.425511 1.3461,-2.5729694 3.01816,-2.5729694 z m 15.37182,0 h 5.1834 c 1.67206,0 3.01815,1.1474584 3.01815,2.5729694 v 6.0363239 c 0,1.425511 -1.34609,2.5729697 -3.01815,2.5729697 h -5.1834 c -1.67207,0 -3.01815,-1.1474587 -3.01815,-2.5729697 v -6.0363239 c 0,-1.425511 1.34608,-2.5729694 3.01815,-2.5729694 z m 15.37129,0 h 5.1834 c 1.67208,0 3.01818,1.1474584 3.01818,2.5729694 v 6.0363239 c 0,1.425511 -1.3461,2.5729697 -3.01818,2.5729697 h -5.1834 c -1.67205,0 -3.01814,-1.1474587 -3.01814,-2.5729697 v -6.0363239 c 0,-1.425511 1.34609,-2.5729694 3.01814,-2.5729694 z m 15.37183,0 h 5.18339 c 1.67206,0 3.01818,1.1474584 3.01818,2.5729694 v 6.0363239 c 0,1.425511 -1.34612,2.5729697 -3.01818,2.5729697 h -5.18339 c -1.67206,0 -3.01815,-1.1474587 -3.01815,-2.5729697 v -6.0363239 c 0,-1.425511 1.34609,-2.5729694 3.01815,-2.5729694 z M 198.08846,49.116897 h 5.18339 c 1.67206,0 3.01815,1.147459 3.01815,2.57297 v 6.036323 c 0,1.425512 -1.34609,2.57297 -3.01815,2.57297 h -5.18339 c -1.67208,0 -3.01817,-1.147458 -3.01817,-2.57297 v -6.036323 c 0,-1.425511 1.34609,-2.57297 3.01817,-2.57297 z m 15.37129,0 h 5.18392 c 1.67207,0 3.01815,1.147459 3.01815,2.57297 v 6.036323 c 0,1.425512 -1.34608,2.57297 -3.01815,2.57297 h -5.18392 c -1.67206,0 -3.01815,-1.147458 -3.01815,-2.57297 v -6.036323 c 0,-1.425511 1.34609,-2.57297 3.01815,-2.57297 z m 15.37182,0 h 5.18341 c 1.67207,0 3.01815,1.147459 3.01815,2.57297 v 6.036323 c 0,1.425512 -1.34608,2.57297 -3.01815,2.57297 h -5.18341 c -1.67207,0 -3.01815,-1.147458 -3.01815,-2.57297 v -6.036323 c 0,-1.425511 1.34608,-2.57297 3.01815,-2.57297 z m 15.37131,0 h 5.18339 c 1.67208,0 3.01868,1.147459 3.01868,2.57297 v 6.036323 c 0,1.425512 -1.3466,2.57297 -3.01868,2.57297 h -5.18339 c -1.67206,0 -3.01816,-1.147458 -3.01816,-2.57297 v -6.036323 c 0,-1.425511 1.3461,-2.57297 3.01816,-2.57297 z m 15.37182,0 h 5.1834 c 1.67206,0 3.01815,1.147459 3.01815,2.57297 v 6.036323 c 0,1.425512 -1.34609,2.57297 -3.01815,2.57297 h -5.1834 c -1.67207,0 -3.01815,-1.147458 -3.01815,-2.57297 v -6.036323 c 0,-1.425511 1.34608,-2.57297 3.01815,-2.57297 z m 15.37129,0 h 5.1834 c 1.67208,0 3.01818,1.147459 3.01818,2.57297 v 6.036323 c 0,1.425512 -1.3461,2.57297 -3.01818,2.57297 h -5.1834 c -1.67205,0 -3.01814,-1.147458 -3.01814,-2.57297 v -6.036323 c 0,-1.425511 1.34609,-2.57297 3.01814,-2.57297 z m 15.37183,0 h 5.18339 c 1.67206,0 3.01818,1.147459 3.01818,2.57297 v 6.036323 c 0,1.425512 -1.34612,2.57297 -3.01818,2.57297 h -5.18339 c -1.67206,0 -3.01815,-1.147458 -3.01815,-2.57297 v -6.036323 c 0,-1.425511 1.34609,-2.57297 3.01815,-2.57297 z"
         style="fill:#616161;fill-opacity:1;stroke:none;stroke-width:0.529;stroke-linecap:square;stroke-linejoin:miter;stroke-miterlimit:4;stroke-dasharray:none;stroke-opacity:1;paint-order:normal"
         id="path960" />
      <g
         transform="translate(137.71156,-47.123888)"
         id="g1004"
         style="fill:#7abbe8;fill-opacity:1">
        <path
           inkscape:connector-curvature="0"
           id="path998"
           transform="scale(0.26458333)"
           d="M 547.26367,227.57812 V 339.20508 H 654.67969 V 227.57812 Z"
           style="fill:#7abbe8;fill-opacity:1;stroke:none;stroke-width:1.9;stroke-linecap:square;stroke-opacity:1" />
        <path
           d="m 56.25433,60.213482 h 33.493522 v 29.53437 H 56.25433 Z"
           style="fill:#7abbe8;fill-opacity:1;stroke:none;stroke-width:0.502708;stroke-linecap:square;stroke-opacity:1"
           id="rect1000" />
        <path
           d="m 94.113014,60.213482 h 46.247616 v 29.53437 H 94.113014 Z"
           style="fill:#7abbe8;fill-opacity:1;stroke:none;stroke-width:0.502708;stroke-linecap:square;stroke-opacity:1"
           id="rect1002" />
      </g>
    </g>
  </g>
</svg>
