<?xml version="1.0" encoding="UTF-8" standalone="no"?>
<svg
   xmlns:dc="http://purl.org/dc/elements/1.1/"
   xmlns:cc="http://creativecommons.org/ns#"
   xmlns:rdf="http://www.w3.org/1999/02/22-rdf-syntax-ns#"
   xmlns:svg="http://www.w3.org/2000/svg"
   xmlns="http://www.w3.org/2000/svg"
   xmlns:sodipodi="http://sodipodi.sourceforge.net/DTD/sodipodi-0.dtd"
   xmlns:inkscape="http://www.inkscape.org/namespaces/inkscape"
   width="210mm"
   height="297mm"
   viewBox="0 0 210 297"
   version="1.1"
   id="svg8"
   inkscape:version="1.0 (4035a4fb49, 2020-05-01)"
   sodipodi:docname="Icons.svg">
  <defs
     id="defs2" />
  <sodipodi:namedview
     id="base"
     pagecolor="#ffffff"
     bordercolor="#666666"
     borderopacity="1.0"
     inkscape:pageopacity="0.0"
     inkscape:pageshadow="2"
     inkscape:zoom="1.2384953"
     inkscape:cx="1015.7898"
     inkscape:cy="-11.366665"
     inkscape:document-units="mm"
     inkscape:current-layer="layer1"
     inkscape:document-rotation="0"
     showgrid="false"
     inkscape:window-width="1920"
     inkscape:window-height="1001"
     inkscape:window-x="-9"
     inkscape:window-y="-9"
     inkscape:window-maximized="1" />
  <metadata
     id="metadata5">
    <rdf:RDF>
      <cc:Work
         rdf:about="">
        <dc:format>image/svg+xml</dc:format>
        <dc:type
           rdf:resource="http://purl.org/dc/dcmitype/StillImage" />
        <dc:title />
      </cc:Work>
    </rdf:RDF>
  </metadata>
  <g
     inkscape:label="Ebene 1"
     inkscape:groupmode="layer"
     id="layer1">
    <path
       inkscape:connector-curvature="0"
       id="rect953"
       d="M 56.637882,39.336615 H 173.15258 V 109.97485 H 56.637882 Z"
       style="fill:#bdbdbd;fill-opacity:1;stroke:none;stroke-width:0.529;stroke-linecap:square;stroke-linejoin:miter;stroke-miterlimit:4;stroke-dasharray:none;stroke-opacity:1;paint-order:normal" />
    <g
       style="fill:#ffffff;fill-opacity:1"
       id="g1024">
      <path
         inkscape:connector-curvature="0"
         id="path1052"
         style="fill:#ffffff;fill-opacity:1;stroke:none;stroke-width:0.502708;stroke-linecap:square;stroke-opacity:1"
         d="m 60.75325,96.240624 h 5.166197 c 1.666486,0 3.008099,1.147614 3.008099,2.573125 v 6.036141 c 0,1.42551 -1.341613,2.57313 -3.008099,2.57313 H 60.75325 c -1.666486,0 -3.008098,-1.14762 -3.008098,-2.57313 v -6.036141 c 0,-1.425511 1.341612,-2.573125 3.008098,-2.573125 z" />
      <path
         inkscape:connector-curvature="0"
         d="m 76.073484,96.240624 h 5.166197 c 1.666486,0 3.008099,1.147614 3.008099,2.573125 v 6.036141 c 0,1.42551 -1.341613,2.57313 -3.008099,2.57313 h -5.166197 c -1.666486,0 -3.008098,-1.14762 -3.008098,-2.57313 v -6.036141 c 0,-1.425511 1.341612,-2.573125 3.008098,-2.573125 z"
         style="fill:#ffffff;fill-opacity:1;stroke:none;stroke-width:0.502708;stroke-linecap:square;stroke-opacity:1"
         id="path1054" />
      <path
         inkscape:connector-curvature="0"
         d="m 91.393726,96.240624 h 5.166197 c 1.666486,0 3.008099,1.147614 3.008099,2.573125 v 6.036141 c 0,1.42551 -1.341613,2.57313 -3.008099,2.57313 h -5.166197 c -1.666486,0 -3.008098,-1.14762 -3.008098,-2.57313 v -6.036141 c 0,-1.425511 1.341612,-2.573125 3.008098,-2.573125 z"
         style="fill:#ffffff;fill-opacity:1;stroke:none;stroke-width:0.502708;stroke-linecap:square;stroke-opacity:1"
         id="path1056" />
      <path
         inkscape:connector-curvature="0"
         id="path1058"
         style="fill:#ffffff;fill-opacity:1;stroke:none;stroke-width:0.502708;stroke-linecap:square;stroke-opacity:1"
         d="m 106.71397,96.240624 h 5.1662 c 1.66649,0 3.0081,1.147614 3.0081,2.573125 v 6.036141 c 0,1.42551 -1.34161,2.57313 -3.0081,2.57313 h -5.1662 c -1.66648,0 -3.0081,-1.14762 -3.0081,-2.57313 v -6.036141 c 0,-1.425511 1.34162,-2.573125 3.0081,-2.573125 z" />
      <path
         inkscape:connector-curvature="0"
         id="path1060"
         style="fill:#ffffff;fill-opacity:1;stroke:none;stroke-width:0.502708;stroke-linecap:square;stroke-opacity:1"
         d="m 122.03421,96.240624 h 5.16619 c 1.66649,0 3.0081,1.147614 3.0081,2.573125 v 6.036141 c 0,1.42551 -1.34161,2.57313 -3.0081,2.57313 h -5.16619 c -1.66649,0 -3.0081,-1.14762 -3.0081,-2.57313 v -6.036141 c 0,-1.425511 1.34161,-2.573125 3.0081,-2.573125 z" />
      <path
         inkscape:connector-curvature="0"
         d="m 137.35446,96.240624 h 5.1662 c 1.66649,0 3.0081,1.147614 3.0081,2.573125 v 6.036141 c 0,1.42551 -1.34161,2.57313 -3.0081,2.57313 h -5.1662 c -1.66648,0 -3.0081,-1.14762 -3.0081,-2.57313 v -6.036141 c 0,-1.425511 1.34162,-2.573125 3.0081,-2.573125 z"
         style="fill:#ffffff;fill-opacity:1;stroke:none;stroke-width:0.502708;stroke-linecap:square;stroke-opacity:1"
         id="path1062" />
      <path
         inkscape:connector-curvature="0"
         id="path1064"
         style="fill:#ffffff;fill-opacity:1;stroke:none;stroke-width:0.502708;stroke-linecap:square;stroke-opacity:1"
         d="m 152.67469,96.240624 h 5.1662 c 1.66648,0 3.0081,1.147614 3.0081,2.573125 v 6.036141 c 0,1.42551 -1.34162,2.57313 -3.0081,2.57313 h -5.1662 c -1.66648,0 -3.0081,-1.14762 -3.0081,-2.57313 v -6.036141 c 0,-1.425511 1.34162,-2.573125 3.0081,-2.573125 z" />
      <path
         style="fill:#ffffff;fill-opacity:1;stroke:none;stroke-width:1.9;stroke-linecap:square;stroke-opacity:1"
         d="m 634.94141,363.74414 c -6.29851,0 -11.36914,4.33685 -11.36914,9.72461 v 22.81445 c 0,5.38776 5.07063,9.72461 11.36914,9.72461 h 19.52539 c 0.0719,0 0.14133,-0.009 0.21289,-0.01 v -42.24414 c -0.0716,-10e-4 -0.14101,-0.01 -0.21289,-0.01 z"
         id="path1066"
         transform="scale(0.26458333)"
         inkscape:connector-curvature="0" />
    </g>
    <g
       style="fill:#ffffff;fill-opacity:1"
       id="g1014">
      <path
         style="fill:#ffffff;fill-opacity:1;stroke:none;stroke-width:1.9;stroke-linecap:square;stroke-opacity:1"
         d="m 634.94141,158.66406 c -6.29851,0 -11.36914,4.33685 -11.36914,9.72461 v 22.81445 c 0,5.38776 5.07063,9.72461 11.36914,9.72461 h 19.52539 c 0.0719,0 0.14133,-0.009 0.21289,-0.01 v -42.24414 c -0.0716,-10e-4 -0.14101,-0.01 -0.21289,-0.01 z"
         transform="scale(0.26458333)"
         id="path1036"
         inkscape:connector-curvature="0" />
      <path
         inkscape:connector-curvature="0"
         d="m 60.75325,41.979805 h 5.166197 c 1.666486,0 3.008099,1.147614 3.008099,2.573125 v 6.036144 c 0,1.425511 -1.341613,2.573125 -3.008099,2.573125 H 60.75325 c -1.666486,0 -3.008098,-1.147614 -3.008098,-2.573125 V 44.55293 c 0,-1.425511 1.341612,-2.573125 3.008098,-2.573125 z"
         style="fill:#ffffff;fill-opacity:1;stroke:none;stroke-width:0.502708;stroke-linecap:square;stroke-opacity:1"
         id="rect1013" />
      <path
         inkscape:connector-curvature="0"
         id="path1016"
         style="fill:#ffffff;fill-opacity:1;stroke:none;stroke-width:0.502708;stroke-linecap:square;stroke-opacity:1"
         d="m 76.073484,41.979805 h 5.166197 c 1.666486,0 3.008099,1.147614 3.008099,2.573125 v 6.036144 c 0,1.425511 -1.341613,2.573125 -3.008099,2.573125 h -5.166197 c -1.666486,0 -3.008098,-1.147614 -3.008098,-2.573125 V 44.55293 c 0,-1.425511 1.341612,-2.573125 3.008098,-2.573125 z" />
      <path
         inkscape:connector-curvature="0"
         id="path1018"
         style="fill:#ffffff;fill-opacity:1;stroke:none;stroke-width:0.502708;stroke-linecap:square;stroke-opacity:1"
         d="m 91.393726,41.979805 h 5.166197 c 1.666486,0 3.008099,1.147614 3.008099,2.573125 v 6.036144 c 0,1.425511 -1.341613,2.573125 -3.008099,2.573125 h -5.166197 c -1.666486,0 -3.008098,-1.147614 -3.008098,-2.573125 V 44.55293 c 0,-1.425511 1.341612,-2.573125 3.008098,-2.573125 z" />
      <path
         inkscape:connector-curvature="0"
         d="m 106.71397,41.979805 h 5.1662 c 1.66649,0 3.0081,1.147614 3.0081,2.573125 v 6.036144 c 0,1.425511 -1.34161,2.573125 -3.0081,2.573125 h -5.1662 c -1.66648,0 -3.0081,-1.147614 -3.0081,-2.573125 V 44.55293 c 0,-1.425511 1.34162,-2.573125 3.0081,-2.573125 z"
         style="fill:#ffffff;fill-opacity:1;stroke:none;stroke-width:0.502708;stroke-linecap:square;stroke-opacity:1"
         id="path1020" />
      <path
         inkscape:connector-curvature="0"
         d="m 122.03421,41.979805 h 5.16619 c 1.66649,0 3.0081,1.147614 3.0081,2.573125 v 6.036144 c 0,1.425511 -1.34161,2.573125 -3.0081,2.573125 h -5.16619 c -1.66649,0 -3.0081,-1.147614 -3.0081,-2.573125 V 44.55293 c 0,-1.425511 1.34161,-2.573125 3.0081,-2.573125 z"
         style="fill:#ffffff;fill-opacity:1;stroke:none;stroke-width:0.502708;stroke-linecap:square;stroke-opacity:1"
         id="path1022" />
      <path
         inkscape:connector-curvature="0"
         id="path1024"
         style="fill:#ffffff;fill-opacity:1;stroke:none;stroke-width:0.502708;stroke-linecap:square;stroke-opacity:1"
         d="m 137.35446,41.979805 h 5.1662 c 1.66649,0 3.0081,1.147614 3.0081,2.573125 v 6.036144 c 0,1.425511 -1.34161,2.573125 -3.0081,2.573125 h -5.1662 c -1.66648,0 -3.0081,-1.147614 -3.0081,-2.573125 V 44.55293 c 0,-1.425511 1.34162,-2.573125 3.0081,-2.573125 z" />
      <path
         inkscape:connector-curvature="0"
         d="m 152.67469,41.979805 h 5.1662 c 1.66648,0 3.0081,1.147614 3.0081,2.573125 v 6.036144 c 0,1.425511 -1.34162,2.573125 -3.0081,2.573125 h -5.1662 c -1.66648,0 -3.0081,-1.147614 -3.0081,-2.573125 V 44.55293 c 0,-1.425511 1.34162,-2.573125 3.0081,-2.573125 z"
         style="fill:#ffffff;fill-opacity:1;stroke:none;stroke-width:0.502708;stroke-linecap:square;stroke-opacity:1"
         id="path1034" />
    </g>
    <g
       style="fill:#ffffff;fill-opacity:1"
       id="g1029">
      <path
         style="fill:#ffffff;fill-opacity:1;stroke:none;stroke-width:1.9;stroke-linecap:square;stroke-opacity:1"
         d="M 547.26367,227.57812 V 339.20508 H 654.67969 V 227.57812 Z"
         transform="scale(0.26458333)"
         id="rect1074"
         inkscape:connector-curvature="0" />
      <rect
         ry="0"
         rx="0"
         y="60.213482"
         x="56.25433"
         height="29.53437"
         width="33.493523"
         id="rect1070"
         style="fill:#ffffff;fill-opacity:1;stroke:none;stroke-width:0.502708;stroke-linecap:square;stroke-opacity:1" />
      <rect
         style="fill:#ffffff;fill-opacity:1;stroke:none;stroke-width:0.502708;stroke-linecap:square;stroke-opacity:1"
         id="rect1072"
         width="46.24762"
         height="29.53437"
         x="94.113014"
         y="60.213482"
         rx="0"
         ry="0" />
    </g>
    <g
       id="g1145">
      <g
         transform="translate(0,84.710984)"
         id="g1092" />
      <g
         id="g1110"
         transform="translate(0,138.9718)" />
    </g>
    <circle
       style="fill:#29d300;fill-opacity:1;stroke:none;stroke-width:0.50270802;stroke-linecap:square;stroke-opacity:1"
       id="path1167"
       cx="-54.982391"
       cy="190.35625"
       r="41.282234"
       inkscape:export-xdpi="138.44"
       inkscape:export-ydpi="138.44" />
    <g
       id="g1232"
       style="fill:#ffffff;fill-opacity:1;stroke-width:1.75573003"
       transform="matrix(0.56956494,0,0,0.56956494,-121.9391,148.39161)"
       inkscape:export-xdpi="138.44"
       inkscape:export-ydpi="138.44">
      <g
         id="g1185"
         style="fill:#ffffff;fill-opacity:1;stroke-width:1.75573003">
        <path
           inkscape:connector-curvature="0"
           d="m 60.75325,41.979805 h 5.166197 c 1.666486,0 3.008099,1.147614 3.008099,2.573125 v 6.036144 c 0,1.425511 -1.341613,2.573125 -3.008099,2.573125 H 60.75325 c -1.666486,0 -3.008098,-1.147614 -3.008098,-2.573125 V 44.55293 c 0,-1.425511 1.341612,-2.573125 3.008098,-2.573125 z"
           style="fill:#ffffff;fill-opacity:1;stroke:none;stroke-width:0.88261801;stroke-linecap:square;stroke-opacity:1"
           id="path1169" />
        <path
           inkscape:connector-curvature="0"
           id="path1171"
           style="fill:#ffffff;fill-opacity:1;stroke:none;stroke-width:0.88261801;stroke-linecap:square;stroke-opacity:1"
           d="m 76.073484,41.979805 h 5.166197 c 1.666486,0 3.008099,1.147614 3.008099,2.573125 v 6.036144 c 0,1.425511 -1.341613,2.573125 -3.008099,2.573125 h -5.166197 c -1.666486,0 -3.008098,-1.147614 -3.008098,-2.573125 V 44.55293 c 0,-1.425511 1.341612,-2.573125 3.008098,-2.573125 z" />
        <path
           inkscape:connector-curvature="0"
           id="path1173"
           style="fill:#ffffff;fill-opacity:1;stroke:none;stroke-width:0.88261801;stroke-linecap:square;stroke-opacity:1"
           d="m 91.393726,41.979805 h 5.166197 c 1.666486,0 3.008099,1.147614 3.008099,2.573125 v 6.036144 c 0,1.425511 -1.341613,2.573125 -3.008099,2.573125 h -5.166197 c -1.666486,0 -3.008098,-1.147614 -3.008098,-2.573125 V 44.55293 c 0,-1.425511 1.341612,-2.573125 3.008098,-2.573125 z" />
        <path
           inkscape:connector-curvature="0"
           d="m 106.71397,41.979805 h 5.1662 c 1.66649,0 3.0081,1.147614 3.0081,2.573125 v 6.036144 c 0,1.425511 -1.34161,2.573125 -3.0081,2.573125 h -5.1662 c -1.66648,0 -3.0081,-1.147614 -3.0081,-2.573125 V 44.55293 c 0,-1.425511 1.34162,-2.573125 3.0081,-2.573125 z"
           style="fill:#ffffff;fill-opacity:1;stroke:none;stroke-width:0.88261801;stroke-linecap:square;stroke-opacity:1"
           id="path1175" />
        <path
           inkscape:connector-curvature="0"
           d="m 122.03421,41.979805 h 5.16619 c 1.66649,0 3.0081,1.147614 3.0081,2.573125 v 6.036144 c 0,1.425511 -1.34161,2.573125 -3.0081,2.573125 h -5.16619 c -1.66649,0 -3.0081,-1.147614 -3.0081,-2.573125 V 44.55293 c 0,-1.425511 1.34161,-2.573125 3.0081,-2.573125 z"
           style="fill:#ffffff;fill-opacity:1;stroke:none;stroke-width:0.88261801;stroke-linecap:square;stroke-opacity:1"
           id="path1177" />
        <path
           inkscape:connector-curvature="0"
           id="path1179"
           style="fill:#ffffff;fill-opacity:1;stroke:none;stroke-width:0.88261801;stroke-linecap:square;stroke-opacity:1"
           d="m 137.35446,41.979805 h 5.1662 c 1.66649,0 3.0081,1.147614 3.0081,2.573125 v 6.036144 c 0,1.425511 -1.34161,2.573125 -3.0081,2.573125 h -5.1662 c -1.66648,0 -3.0081,-1.147614 -3.0081,-2.573125 V 44.55293 c 0,-1.425511 1.34162,-2.573125 3.0081,-2.573125 z" />
        <path
           inkscape:connector-curvature="0"
           d="m 152.67469,41.979805 h 5.1662 c 1.66648,0 3.0081,1.147614 3.0081,2.573125 v 6.036144 c 0,1.425511 -1.34162,2.573125 -3.0081,2.573125 h -5.1662 c -1.66648,0 -3.0081,-1.147614 -3.0081,-2.573125 V 44.55293 c 0,-1.425511 1.34162,-2.573125 3.0081,-2.573125 z"
           style="fill:#ffffff;fill-opacity:1;stroke:none;stroke-width:0.88261801;stroke-linecap:square;stroke-opacity:1"
           id="path1181" />
        <path
           inkscape:connector-curvature="0"
           id="path1183"
           style="fill:#ffffff;fill-opacity:1;stroke:none;stroke-width:0.88261801;stroke-linecap:square;stroke-opacity:1"
           d="m 167.99493,41.979805 h 5.1662 c 1.66649,0 3.0081,1.147614 3.0081,2.573125 v 6.036144 c 0,1.425511 -1.34161,2.573125 -3.0081,2.573125 h -5.1662 c -1.66648,0 -3.0081,-1.147614 -3.0081,-2.573125 V 44.55293 c 0,-1.425511 1.34162,-2.573125 3.0081,-2.573125 z" />
      </g>
      <g
         id="g1203"
         transform="translate(0,54.260819)"
         style="fill:#ffffff;fill-opacity:1;stroke-width:1.75573003">
        <path
           inkscape:connector-curvature="0"
           id="path1187"
           style="fill:#ffffff;fill-opacity:1;stroke:none;stroke-width:0.88261801;stroke-linecap:square;stroke-opacity:1"
           d="m 60.75325,41.979805 h 5.166197 c 1.666486,0 3.008099,1.147614 3.008099,2.573125 v 6.036144 c 0,1.425511 -1.341613,2.573125 -3.008099,2.573125 H 60.75325 c -1.666486,0 -3.008098,-1.147614 -3.008098,-2.573125 V 44.55293 c 0,-1.425511 1.341612,-2.573125 3.008098,-2.573125 z" />
        <path
           inkscape:connector-curvature="0"
           d="m 76.073484,41.979805 h 5.166197 c 1.666486,0 3.008099,1.147614 3.008099,2.573125 v 6.036144 c 0,1.425511 -1.341613,2.573125 -3.008099,2.573125 h -5.166197 c -1.666486,0 -3.008098,-1.147614 -3.008098,-2.573125 V 44.55293 c 0,-1.425511 1.341612,-2.573125 3.008098,-2.573125 z"
           style="fill:#ffffff;fill-opacity:1;stroke:none;stroke-width:0.88261801;stroke-linecap:square;stroke-opacity:1"
           id="path1189" />
        <path
           inkscape:connector-curvature="0"
           d="m 91.393726,41.979805 h 5.166197 c 1.666486,0 3.008099,1.147614 3.008099,2.573125 v 6.036144 c 0,1.425511 -1.341613,2.573125 -3.008099,2.573125 h -5.166197 c -1.666486,0 -3.008098,-1.147614 -3.008098,-2.573125 V 44.55293 c 0,-1.425511 1.341612,-2.573125 3.008098,-2.573125 z"
           style="fill:#ffffff;fill-opacity:1;stroke:none;stroke-width:0.88261801;stroke-linecap:square;stroke-opacity:1"
           id="path1191" />
        <path
           inkscape:connector-curvature="0"
           id="path1193"
           style="fill:#ffffff;fill-opacity:1;stroke:none;stroke-width:0.88261801;stroke-linecap:square;stroke-opacity:1"
           d="m 106.71397,41.979805 h 5.1662 c 1.66649,0 3.0081,1.147614 3.0081,2.573125 v 6.036144 c 0,1.425511 -1.34161,2.573125 -3.0081,2.573125 h -5.1662 c -1.66648,0 -3.0081,-1.147614 -3.0081,-2.573125 V 44.55293 c 0,-1.425511 1.34162,-2.573125 3.0081,-2.573125 z" />
        <path
           inkscape:connector-curvature="0"
           id="path1195"
           style="fill:#ffffff;fill-opacity:1;stroke:none;stroke-width:0.88261801;stroke-linecap:square;stroke-opacity:1"
           d="m 122.03421,41.979805 h 5.16619 c 1.66649,0 3.0081,1.147614 3.0081,2.573125 v 6.036144 c 0,1.425511 -1.34161,2.573125 -3.0081,2.573125 h -5.16619 c -1.66649,0 -3.0081,-1.147614 -3.0081,-2.573125 V 44.55293 c 0,-1.425511 1.34161,-2.573125 3.0081,-2.573125 z" />
        <path
           inkscape:connector-curvature="0"
           d="m 137.35446,41.979805 h 5.1662 c 1.66649,0 3.0081,1.147614 3.0081,2.573125 v 6.036144 c 0,1.425511 -1.34161,2.573125 -3.0081,2.573125 h -5.1662 c -1.66648,0 -3.0081,-1.147614 -3.0081,-2.573125 V 44.55293 c 0,-1.425511 1.34162,-2.573125 3.0081,-2.573125 z"
           style="fill:#ffffff;fill-opacity:1;stroke:none;stroke-width:0.88261801;stroke-linecap:square;stroke-opacity:1"
           id="path1197" />
        <path
           inkscape:connector-curvature="0"
           id="path1199"
           style="fill:#ffffff;fill-opacity:1;stroke:none;stroke-width:0.88261801;stroke-linecap:square;stroke-opacity:1"
           d="m 152.67469,41.979805 h 5.1662 c 1.66648,0 3.0081,1.147614 3.0081,2.573125 v 6.036144 c 0,1.425511 -1.34162,2.573125 -3.0081,2.573125 h -5.1662 c -1.66648,0 -3.0081,-1.147614 -3.0081,-2.573125 V 44.55293 c 0,-1.425511 1.34162,-2.573125 3.0081,-2.573125 z" />
        <path
           inkscape:connector-curvature="0"
           d="m 167.99493,41.979805 h 5.1662 c 1.66649,0 3.0081,1.147614 3.0081,2.573125 v 6.036144 c 0,1.425511 -1.34161,2.573125 -3.0081,2.573125 h -5.1662 c -1.66648,0 -3.0081,-1.147614 -3.0081,-2.573125 V 44.55293 c 0,-1.425511 1.34162,-2.573125 3.0081,-2.573125 z"
           style="fill:#ffffff;fill-opacity:1;stroke:none;stroke-width:0.88261801;stroke-linecap:square;stroke-opacity:1"
           id="path1201" />
      </g>
      <rect
         style="fill:#ffffff;fill-opacity:1;stroke:none;stroke-width:0.88261801;stroke-linecap:square;stroke-opacity:1"
         id="rect1205"
         width="35.029137"
         height="29.53437"
         x="54.718716"
         y="60.213482"
         rx="0"
         ry="0" />
      <rect
         ry="0"
         rx="0"
         y="60.213482"
         x="94.113014"
         height="29.53437"
         width="46.24762"
         id="rect1207"
         style="fill:#ffffff;fill-opacity:1;stroke:none;stroke-width:0.88261801;stroke-linecap:square;stroke-opacity:1" />
      <rect
         style="fill:#ffffff;fill-opacity:1;stroke:none;stroke-width:0.88261801;stroke-linecap:square;stroke-opacity:1"
         id="rect1209"
         width="36.173882"
         height="29.53437"
         x="144.79707"
         y="60.213482"
         rx="0"
         ry="0" />
    </g>
    <circle
       inkscape:export-ydpi="138.44"
       inkscape:export-xdpi="138.44"
       r="41.282234"
       cy="273.41528"
       cx="67.756607"
       id="path1167-1"
       style="fill:#9c00d3;fill-opacity:1;stroke:none;stroke-width:0.502708;stroke-linecap:square;stroke-opacity:1;stop-color:#000000"
       inkscape:export-filename="C:\Vorhaben\Scheinertag.de\htdocs\assets\auswahl-button.png" />
    <g
       id="g1300"
       transform="translate(0.32574844)"
       inkscape:export-filename="C:\Vorhaben\Scheinertag.de\htdocs\assets\auswahl-button.png"
       inkscape:export-xdpi="138"
       inkscape:export-ydpi="138">
      <circle
         r="8.252408"
         cy="273.63248"
         cx="46.039749"
         id="path1291"
         style="fill:#ffffff;fill-opacity:1;stroke:none;stroke-width:3.20101;stroke-linecap:square;stroke-miterlimit:4;stroke-dasharray:none;stroke-opacity:1;stop-color:#000000" />
      <circle
         style="fill:#ffffff;fill-opacity:1;stroke:none;stroke-width:3.20101;stroke-linecap:square;stroke-miterlimit:4;stroke-dasharray:none;stroke-opacity:1;stop-color:#000000"
         id="circle1293"
         cx="67.430855"
         cy="273.63248"
         r="8.252408" />
      <circle
         r="8.252408"
         cy="273.63248"
         cx="88.821968"
         id="circle1295"
         style="fill:#ffffff;fill-opacity:1;stroke:none;stroke-width:3.20101;stroke-linecap:square;stroke-miterlimit:4;stroke-dasharray:none;stroke-opacity:1;stop-color:#000000" />
    </g>
    <circle
       inkscape:export-filename="C:\Vorhaben\Scheinertag.de\htdocs\assets\auswahl-button.png"
       style="fill:#0000ff;fill-opacity:1;stroke:none;stroke-width:0.50270802;stroke-linecap:square;stroke-opacity:1"
       id="circle945"
       cx="167.21983"
       cy="273.41528"
       r="41.282234"
       inkscape:export-xdpi="138.44"
       inkscape:export-ydpi="138.44" />
    <path
       d="m 189.15401,271.17799 a 22.53124,22.145304 0 0 1 -9.30885,23.40769 22.53124,22.145304 0 0 1 -25.56932,-0.21624 22.53124,22.145304 0 0 1 -8.89768,-23.56166"
       sodipodi:open="true"
       sodipodi:end="3.3895822"
       sodipodi:start="6.0524038"
       sodipodi:ry="22.145304"
       sodipodi:rx="22.53124"
       sodipodi:cy="276.24347"
       sodipodi:cx="167.22012"
       sodipodi:type="arc"
       id="path955"
       style="fill:none;fill-opacity:1;stroke:#ffffff;stroke-width:10;stroke-linecap:round;stroke-linejoin:round;stroke-miterlimit:4;stroke-dasharray:none;stroke-opacity:1" />
    <path
       sodipodi:nodetypes="ccc"
       inkscape:connector-curvature="0"
       id="path963"
       d="m 132.79315,270.15501 15.0344,-8.41848 8.19812,14.06226"
       style="fill:none;stroke:#fefefe;stroke-width:7;stroke-linecap:round;stroke-linejoin:miter;stroke-miterlimit:4;stroke-dasharray:none;stroke-opacity:1" />
    <path
       style="fill:none;stroke:#fefefe;stroke-width:7;stroke-linecap:round;stroke-linejoin:miter;stroke-miterlimit:4;stroke-dasharray:none;stroke-opacity:1"
       d="m 200.84734,271.99775 -15.0344,-8.41848 -8.19812,14.06226"
       id="path965"
       inkscape:connector-curvature="0"
       sodipodi:nodetypes="ccc" />
    <circle
       style="fill:#ffffff;fill-opacity:1;stroke:none;stroke-width:3.20100999;stroke-linecap:square;stroke-miterlimit:4;stroke-dasharray:none;stroke-opacity:1"
       id="circle969"
       cx="167.57152"
       cy="253.66949"
       r="8.252408" />
    <g
       inkscape:export-ydpi="123.06"
       inkscape:export-xdpi="123.06"
       inkscape:export-filename="H:\Vorhaben\Scheinertag.de\htdocs\assets\bilder-button.png"
       transform="translate(207.61502,-5.2210879)"
       id="g918">
      <circle
         style="fill:#fbff01;fill-opacity:1;stroke:none;stroke-width:0.50270802;stroke-linecap:square;stroke-opacity:1"
         id="path1167-6"
         cx="-44.863644"
         cy="185.42148"
         r="41.282234"
         inkscape:export-xdpi="138.44"
         inkscape:export-ydpi="138.44" />
      <rect
         transform="rotate(-11.517846)"
         style="fill:#ffffff;fill-opacity:1;stroke:#767676;stroke-width:3.20099998;stroke-linecap:square;stroke-miterlimit:4;stroke-dasharray:none;stroke-opacity:1"
         id="rect1266"
         width="39.686615"
         height="35.70713"
         x="-110.77184"
         y="158.82973"
         ry="9.7134571"
         rx="6.4756427" />
      <rect
         rx="6.4756427"
         ry="9.7134571"
         y="164.43195"
         x="-57.90559"
         height="35.70713"
         width="39.686615"
         id="rect1268"
         style="fill:#ffffff;fill-opacity:1;stroke:#767676;stroke-width:3.20099998;stroke-linecap:square;stroke-miterlimit:4;stroke-dasharray:none;stroke-opacity:1" />
      <path
         id="path1270"
         d="m -57.47864,187.69454 8.73297,-14.02194 12.91494,26.19888"
         style="fill:none;stroke:#767676;stroke-width:3.20099998;stroke-linecap:butt;stroke-linejoin:miter;stroke-miterlimit:4;stroke-dasharray:none;stroke-opacity:1"
         inkscape:connector-curvature="0" />
      <path
         id="path1272"
         d="m -42.7187,185.97254 9.83996,-8.24096 13.03794,18.69592"
         style="fill:none;stroke:#767676;stroke-width:3.20099998;stroke-linecap:butt;stroke-linejoin:miter;stroke-miterlimit:4;stroke-dasharray:none;stroke-opacity:1"
         inkscape:connector-curvature="0" />
      <circle
         r="2.7424967"
         cy="174.09344"
         cx="-38.730694"
         id="path1274"
         style="fill:#ffffff;fill-opacity:1;stroke:#767676;stroke-width:3.20099998;stroke-linecap:square;stroke-miterlimit:4;stroke-dasharray:none;stroke-opacity:1" />
    </g>
    <g
       inkscape:export-ydpi="123"
       inkscape:export-xdpi="123"
       id="g935">
      <rect
         style="fill:none;fill-opacity:1;stroke:#606060;stroke-width:3;stroke-linecap:square;stroke-linejoin:miter;stroke-miterlimit:4;stroke-dasharray:none;stroke-opacity:1;paint-order:normal"
         id="rect1056"
         width="44.085228"
         height="53.640652"
         x="21.282526"
         y="141.29008"
         ry="6.7322206"
         rx="6.7322206" />
      <path
         style="fill:none;stroke:#74d455;stroke-width:3;stroke-linecap:round;stroke-linejoin:round;stroke-miterlimit:4;stroke-dasharray:none;stroke-opacity:1"
         d="m 28.883426,166.63486 2.388856,2.82319 6.297891,-6.51506"
         id="path1063"
         inkscape:connector-curvature="0" />
      <path
         inkscape:connector-curvature="0"
         id="path1071"
         d="M 41.262039,170.44906 H 57.549685"
         style="fill:none;stroke:#606060;stroke-width:3;stroke-linecap:round;stroke-linejoin:miter;stroke-miterlimit:4;stroke-dasharray:none;stroke-opacity:1" />
      <path
         style="fill:none;stroke:#e51f1f;stroke-width:3;stroke-linecap:round;stroke-linejoin:round;stroke-miterlimit:4;stroke-dasharray:none;stroke-opacity:1"
         d="m 28.666257,177.46242 8.03524,7.16657"
         id="path1065"
         inkscape:connector-curvature="0" />
      <path
         inkscape:connector-curvature="0"
         id="path1067"
         d="m 36.701497,177.46242 -8.03524,7.16657"
         style="fill:none;stroke:#e51f1f;stroke-width:3;stroke-linecap:round;stroke-linejoin:round;stroke-miterlimit:4;stroke-dasharray:none;stroke-opacity:1" />
      <path
         style="fill:none;stroke:#606060;stroke-width:3;stroke-linecap:round;stroke-linejoin:miter;stroke-miterlimit:4;stroke-dasharray:none;stroke-opacity:1"
         d="M 41.262039,184.84615 H 57.549685"
         id="path1073"
         inkscape:connector-curvature="0" />
      <path
         inkscape:connector-curvature="0"
         id="path1084"
         d="m 28.883426,152.17603 2.388856,2.82319 6.297891,-6.51506"
         style="fill:none;stroke:#74d455;stroke-width:3;stroke-linecap:round;stroke-linejoin:round;stroke-miterlimit:4;stroke-dasharray:none;stroke-opacity:1" />
      <path
         style="fill:none;stroke:#606060;stroke-width:3;stroke-linecap:round;stroke-linejoin:miter;stroke-miterlimit:4;stroke-dasharray:none;stroke-opacity:1"
         d="M 41.262039,155.99023 H 57.549685"
         id="path1086"
         inkscape:connector-curvature="0" />
    </g>
    <g
       inkscape:export-ydpi="123.06"
       inkscape:export-xdpi="123.06"
       inkscape:export-filename="H:\Vorhaben\SQL-Online\htdocs\assets\graphics\rocket.png"
       id="g1210">
      <path
         style="fill:none;stroke:#000000;stroke-width:5;stroke-linecap:round;stroke-linejoin:round;stroke-miterlimit:4;stroke-dasharray:none;stroke-opacity:1"
         d="m -160.0109,-43.83666 c 0,0 -17.4368,20.098056 -24.57008,38.6859635 -7.13328,18.5879085 -0.61392,79.8160115 -0.61392,79.8160115 h 25.184 25.18399 c 0,0 6.51885,-61.228103 -0.61443,-79.8160115 C -142.57462,-23.738604 -160.0109,-43.83666 -160.0109,-43.83666 Z"
         id="path1155"
         inkscape:connector-curvature="0" />
      <circle
         style="fill:none;fill-opacity:1;stroke:#000000;stroke-width:5;stroke-linecap:round;stroke-linejoin:round;stroke-miterlimit:4;stroke-dasharray:none;stroke-opacity:1;paint-order:normal"
         id="path1160"
         cx="-160.01109"
         cy="26.271238"
         r="9.0601225" />
      <path
         style="fill:none;stroke:#000000;stroke-width:3;stroke-linecap:butt;stroke-linejoin:miter;stroke-miterlimit:4;stroke-dasharray:none;stroke-opacity:1"
         d="m -187.03779,7.076061 h 54.36074"
         id="path1162"
         inkscape:connector-curvature="0" />
      <circle
         r="9.0601225"
         cy="53.605167"
         cx="-160.01109"
         id="circle1164"
         style="fill:none;fill-opacity:1;stroke:#000000;stroke-width:5;stroke-linecap:round;stroke-linejoin:round;stroke-miterlimit:4;stroke-dasharray:none;stroke-opacity:1;paint-order:normal" />
      <path
         style="fill:none;stroke:#000000;stroke-width:5;stroke-linecap:butt;stroke-linejoin:miter;stroke-opacity:1;stroke-miterlimit:4;stroke-dasharray:none"
         d="m -131.44856,32.260132 c 0,0 7.67807,4.606842 19.96298,19.348738 17.938376,21.526058 13.820525,42.382948 13.820525,42.382948 L -133.2913,67.579255"
         id="path1166"
         inkscape:connector-curvature="0"
         sodipodi:nodetypes="cscc" />
      <path
         sodipodi:nodetypes="cscc"
         inkscape:connector-curvature="0"
         id="path1168"
         d="m -188.50694,32.260132 c 0,0 -7.67807,4.606842 -19.96298,19.348738 -17.93838,21.526058 -13.82053,42.382948 -13.82053,42.382948 l 35.62625,-26.412563"
         style="fill:none;stroke:#000000;stroke-width:5;stroke-linecap:butt;stroke-linejoin:miter;stroke-miterlimit:4;stroke-dasharray:none;stroke-opacity:1" />
      <g
         id="g1190"
         transform="translate(4.2997195)">
        <path
           sodipodi:nodetypes="scscs"
           inkscape:connector-curvature="0"
           id="path1170"
           d="m -173.84002,119.124 c 0,12.21258 -5.70513,22.11284 -5.70513,22.11284 0,0 -5.70513,-9.90025 -5.70513,-22.11284 0,-12.21259 2.55428,-22.112845 5.70513,-22.112841 3.15086,1.2e-5 5.70513,9.900261 5.70513,22.112841 z"
           style="fill:none;fill-opacity:1;stroke:#000000;stroke-width:5;stroke-linecap:round;stroke-linejoin:round;stroke-miterlimit:4;stroke-dasharray:none;stroke-opacity:1;paint-order:normal" />
        <path
           inkscape:connector-curvature="0"
           id="path1174"
           d="m -182.63544,74.898318 -6.65598,13.20628 h 18.30396 l -5.46741,-12.899157"
           style="fill:none;stroke:#000000;stroke-width:5;stroke-linecap:butt;stroke-linejoin:miter;stroke-miterlimit:4;stroke-dasharray:none;stroke-opacity:1" />
      </g>
      <g
         transform="translate(35.319124)"
         id="g1196">
        <path
           style="fill:none;fill-opacity:1;stroke:#000000;stroke-width:5;stroke-linecap:round;stroke-linejoin:round;stroke-miterlimit:4;stroke-dasharray:none;stroke-opacity:1;paint-order:normal"
           d="m -173.84002,119.124 c 0,12.21258 -5.70513,22.11284 -5.70513,22.11284 0,0 -5.70513,-9.90025 -5.70513,-22.11284 0,-12.21259 2.55428,-22.112845 5.70513,-22.112841 3.15086,1.2e-5 5.70513,9.900261 5.70513,22.112841 z"
           id="path1192"
           inkscape:connector-curvature="0"
           sodipodi:nodetypes="scscs" />
        <path
           style="fill:none;stroke:#000000;stroke-width:5;stroke-linecap:butt;stroke-linejoin:miter;stroke-miterlimit:4;stroke-dasharray:none;stroke-opacity:1"
           d="m -182.63544,74.898318 -6.65598,13.20628 h 18.30396 l -5.46741,-12.899157"
           id="path1194"
           inkscape:connector-curvature="0" />
      </g>
    </g>
    <g
       inkscape:export-ydpi="123"
       inkscape:export-xdpi="123"
       id="g1045">
      <path
         id="path960"
         style="fill:#616161;fill-opacity:1;stroke:none;stroke-width:1.99937;stroke-linecap:square;stroke-linejoin:miter;stroke-miterlimit:4;stroke-dasharray:none;stroke-opacity:1;paint-order:normal"
         d="M 734.54883 -29.431641 L 734.54883 237.54688 L 1174.9199 237.54688 L 1174.9199 227.90234 L 1155.4258 227.90234 C 1149.1273 227.90234 1144.0566 223.56549 1144.0566 218.17773 L 1144.0566 195.36328 C 1144.0566 189.97552 1149.1273 185.63867 1155.4258 185.63867 L 1174.9199 185.63867 L 1174.9199 22.822266 L 1155.4258 22.822266 C 1149.1273 22.822266 1144.0566 18.485416 1144.0566 13.097656 L 1144.0566 -9.7167969 C 1144.0566 -15.104556 1149.1273 -19.441406 1155.4258 -19.441406 L 1174.9199 -19.443359 L 1174.9199 -29.431641 L 734.54883 -29.431641 z M 750.10352 -19.441406 L 769.62891 -19.441406 C 775.92741 -19.441406 780.99805 -15.104555 780.99805 -9.7167969 L 780.99805 13.097656 C 780.99805 18.485414 775.92741 22.822266 769.62891 22.822266 L 750.10352 22.822266 C 743.80497 22.822266 738.73438 18.485414 738.73438 13.097656 L 738.73438 -9.7167969 C 738.73438 -15.104555 743.80497 -19.441406 750.10352 -19.441406 z M 808.00586 -19.441406 L 827.5332 -19.441406 C 833.83175 -19.441406 838.90234 -15.104555 838.90234 -9.7167969 L 838.90234 13.097656 C 838.90234 18.485414 833.83175 22.822266 827.5332 22.822266 L 808.00586 22.822266 C 801.70735 22.822266 796.63672 18.485414 796.63672 13.097656 L 796.63672 -9.7167969 C 796.63672 -15.104555 801.70735 -19.441406 808.00586 -19.441406 z M 865.91016 -19.441406 L 885.43555 -19.441406 C 891.73409 -19.441406 896.80469 -15.104555 896.80469 -9.7167969 L 896.80469 13.097656 C 896.80469 18.485414 891.73409 22.822266 885.43555 22.822266 L 865.91016 22.822266 C 859.61161 22.822266 854.54102 18.485414 854.54102 13.097656 L 854.54102 -9.7167969 C 854.54102 -15.104555 859.61161 -19.441406 865.91016 -19.441406 z M 923.8125 -19.441406 L 943.33789 -19.441406 C 949.63644 -19.441406 954.70898 -15.104555 954.70898 -9.7167969 L 954.70898 13.097656 C 954.70898 18.485414 949.63644 22.822266 943.33789 22.822266 L 923.8125 22.822266 C 917.51399 22.822266 912.44336 18.485414 912.44336 13.097656 L 912.44336 -9.7167969 C 912.44336 -15.104555 917.51399 -19.441406 923.8125 -19.441406 z M 981.7168 -19.441406 L 1001.2422 -19.441406 C 1007.5407 -19.441406 1012.6113 -15.104555 1012.6113 -9.7167969 L 1012.6113 13.097656 C 1012.6113 18.485414 1007.5407 22.822266 1001.2422 22.822266 L 981.7168 22.822266 C 975.41825 22.822266 970.34766 18.485414 970.34766 13.097656 L 970.34766 -9.7167969 C 970.34766 -15.104555 975.41825 -19.441406 981.7168 -19.441406 z M 1039.6191 -19.441406 L 1059.1445 -19.441406 C 1065.4431 -19.441406 1070.5137 -15.104555 1070.5137 -9.7167969 L 1070.5137 13.097656 C 1070.5137 18.485414 1065.4431 22.822266 1059.1445 22.822266 L 1039.6191 22.822266 C 1033.3206 22.822266 1028.25 18.485414 1028.25 13.097656 L 1028.25 -9.7167969 C 1028.25 -15.104555 1033.3206 -19.441406 1039.6191 -19.441406 z M 1097.5234 -19.441406 L 1117.0488 -19.441406 C 1123.3473 -19.441406 1128.418 -15.104555 1128.418 -9.7167969 L 1128.418 13.097656 C 1128.418 18.485414 1123.3473 22.822266 1117.0488 22.822266 L 1097.5234 22.822266 C 1091.2249 22.822266 1086.1543 18.485414 1086.1543 13.097656 L 1086.1543 -9.7167969 C 1086.1543 -15.104555 1091.2249 -19.441406 1097.5234 -19.441406 z M 750.10352 185.63867 L 769.62891 185.63867 C 775.92741 185.63867 780.99805 189.97552 780.99805 195.36328 L 780.99805 218.17773 C 780.99805 223.56549 775.92741 227.90234 769.62891 227.90234 L 750.10352 227.90234 C 743.80497 227.90234 738.73438 223.56549 738.73438 218.17773 L 738.73438 195.36328 C 738.73438 189.97552 743.80497 185.63867 750.10352 185.63867 z M 808.00586 185.63867 L 827.5332 185.63867 C 833.83175 185.63867 838.90234 189.97552 838.90234 195.36328 L 838.90234 218.17773 C 838.90234 223.56549 833.83175 227.90234 827.5332 227.90234 L 808.00586 227.90234 C 801.70735 227.90234 796.63672 223.56549 796.63672 218.17773 L 796.63672 195.36328 C 796.63672 189.97552 801.70735 185.63867 808.00586 185.63867 z M 865.91016 185.63867 L 885.43555 185.63867 C 891.73409 185.63867 896.80469 189.97552 896.80469 195.36328 L 896.80469 218.17773 C 896.80469 223.56549 891.73409 227.90234 885.43555 227.90234 L 865.91016 227.90234 C 859.61161 227.90234 854.54102 223.56549 854.54102 218.17773 L 854.54102 195.36328 C 854.54102 189.97552 859.61161 185.63867 865.91016 185.63867 z M 923.8125 185.63867 L 943.33789 185.63867 C 949.63644 185.63867 954.70898 189.97552 954.70898 195.36328 L 954.70898 218.17773 C 954.70898 223.56549 949.63644 227.90234 943.33789 227.90234 L 923.8125 227.90234 C 917.51399 227.90234 912.44336 223.56549 912.44336 218.17773 L 912.44336 195.36328 C 912.44336 189.97552 917.51399 185.63867 923.8125 185.63867 z M 981.7168 185.63867 L 1001.2422 185.63867 C 1007.5407 185.63867 1012.6113 189.97552 1012.6113 195.36328 L 1012.6113 218.17773 C 1012.6113 223.56549 1007.5407 227.90234 1001.2422 227.90234 L 981.7168 227.90234 C 975.41825 227.90234 970.34766 223.56549 970.34766 218.17773 L 970.34766 195.36328 C 970.34766 189.97552 975.41825 185.63867 981.7168 185.63867 z M 1039.6191 185.63867 L 1059.1445 185.63867 C 1065.4431 185.63867 1070.5137 189.97552 1070.5137 195.36328 L 1070.5137 218.17773 C 1070.5137 223.56549 1065.4431 227.90234 1059.1445 227.90234 L 1039.6191 227.90234 C 1033.3206 227.90234 1028.25 223.56549 1028.25 218.17773 L 1028.25 195.36328 C 1028.25 189.97552 1033.3206 185.63867 1039.6191 185.63867 z M 1097.5234 185.63867 L 1117.0488 185.63867 C 1123.3473 185.63867 1128.418 189.97552 1128.418 195.36328 L 1128.418 218.17773 C 1128.418 223.56549 1123.3473 227.90234 1117.0488 227.90234 L 1097.5234 227.90234 C 1091.2249 227.90234 1086.1543 223.56549 1086.1543 218.17773 L 1086.1543 195.36328 C 1086.1543 189.97552 1091.2249 185.63867 1097.5234 185.63867 z "
         transform="scale(0.26458333)" />
      <g
         style="fill:#e8e77a;fill-opacity:1"
         id="g1004"
         transform="translate(137.71156,-47.123888)">
        <path
           style="fill:#e8e77a;fill-opacity:1;stroke:none;stroke-width:1.9;stroke-linecap:square;stroke-opacity:1"
           d="M 547.26367,227.57812 V 339.20508 H 654.67969 V 227.57812 Z"
           transform="scale(0.26458333)"
           id="path998"
           inkscape:connector-curvature="0" />
        <path
           id="rect1000"
           style="fill:#e8e77a;fill-opacity:1;stroke:none;stroke-width:0.502708;stroke-linecap:square;stroke-opacity:1"
           d="m 56.25433,60.213482 h 33.493522 v 29.53437 H 56.25433 Z" />
        <path
           id="rect1002"
           style="fill:#e8e77a;fill-opacity:1;stroke:none;stroke-width:0.502708;stroke-linecap:square;stroke-opacity:1"
           d="m 94.113014,60.213482 h 46.247616 v 29.53437 H 94.113014 Z" />
      </g>
    </g>
  </g>
</svg>
