<?xml version="1.0" encoding="UTF-8" standalone="no"?>
<svg
   xmlns:dc="http://purl.org/dc/elements/1.1/"
   xmlns:cc="http://creativecommons.org/ns#"
   xmlns:rdf="http://www.w3.org/1999/02/22-rdf-syntax-ns#"
   xmlns:svg="http://www.w3.org/2000/svg"
   xmlns="http://www.w3.org/2000/svg"
   xmlns:sodipodi="http://sodipodi.sourceforge.net/DTD/sodipodi-0.dtd"
   xmlns:inkscape="http://www.inkscape.org/namespaces/inkscape"
   width="16"
   height="16"
   viewBox="0 0 16 16"
   fill="none"
   version="1.1"
   id="svg4"
   sodipodi:docname="add-project-dark.svg"
   inkscape:version="0.92.3 (2405546, 2018-03-11)">
  <metadata
     id="metadata10">
    <rdf:RDF>
      <cc:Work
         rdf:about="">
        <dc:format>image/svg+xml</dc:format>
        <dc:type
           rdf:resource="http://purl.org/dc/dcmitype/StillImage" />
        <dc:title></dc:title>
      </cc:Work>
    </rdf:RDF>
  </metadata>
  <defs
     id="defs8" />
  <sodipodi:namedview
     pagecolor="#ffffff"
     bordercolor="#666666"
     borderopacity="1"
     objecttolerance="10"
     gridtolerance="10"
     guidetolerance="10"
     inkscape:pageopacity="0"
     inkscape:pageshadow="2"
     inkscape:window-width="1920"
     inkscape:window-height="1001"
     id="namedview6"
     showgrid="false"
     inkscape:zoom="41.7193"
     inkscape:cx="10.059941"
     inkscape:cy="7.5644339"
     inkscape:window-x="-9"
     inkscape:window-y="-9"
     inkscape:window-maximized="1"
     inkscape:current-layer="svg4" />
  <path
     transform="rotate(-90)"
     style="opacity:1;vector-effect:none;fill:#c5c5c5;fill-opacity:1;fill-rule:nonzero;stroke:none;stroke-width:0.99999994;stroke-linecap:round;stroke-linejoin:miter;stroke-miterlimit:4;stroke-dasharray:none;stroke-dashoffset:19.99370003;stroke-opacity:1;paint-order:fill markers stroke"
     d="m -11.925139,6.519763 h 1.198473 c 4e-6,0 7e-6,2.9e-6 7e-6,6.6e-6 v 2.972232 c 0,3.7e-6 -3e-6,6.6e-6 -7e-6,6.6e-6 h -1.198473 c -3e-6,0 -6e-6,-2.9e-6 -6e-6,-6.6e-6 v -2.972232 c 0,-3.7e-6 3e-6,-6.6e-6 6e-6,-6.6e-6 z"
     id="rect825" />
  <path
     style="color:#000000;font-style:normal;font-variant:normal;font-weight:normal;font-stretch:normal;font-size:medium;line-height:normal;font-family:sans-serif;font-variant-ligatures:normal;font-variant-position:normal;font-variant-caps:normal;font-variant-numeric:normal;font-variant-alternates:normal;font-feature-settings:normal;text-indent:0;text-align:start;text-decoration:none;text-decoration-line:none;text-decoration-style:solid;text-decoration-color:#000000;letter-spacing:normal;word-spacing:normal;text-transform:none;writing-mode:lr-tb;direction:ltr;text-orientation:mixed;dominant-baseline:auto;baseline-shift:baseline;text-anchor:start;white-space:normal;shape-padding:0;clip-rule:nonzero;display:inline;overflow:visible;visibility:visible;opacity:1;isolation:auto;mix-blend-mode:normal;color-interpolation:sRGB;color-interpolation-filters:linearRGB;solid-color:#000000;solid-opacity:1;vector-effect:none;fill:#c5c5c5;fill-opacity:1;fill-rule:nonzero;stroke:none;stroke-width:0.99999994;stroke-linecap:round;stroke-linejoin:miter;stroke-miterlimit:4;stroke-dasharray:none;stroke-dashoffset:19.99370003;stroke-opacity:1;paint-order:fill markers stroke;color-rendering:auto;image-rendering:auto;shape-rendering:auto;text-rendering:auto;enable-background:accumulate"
     d="M 5.0820312 1.0175781 L 5.0820312 2.0175781 L 13.228516 2.0175781 L 13.228516 13.982422 L 2.7714844 13.982422 L 2.7714844 8.0664062 L 1.7714844 8.0664062 L 1.7714844 14.982422 L 14.228516 14.982422 L 14.228516 1.0175781 L 5.0820312 1.0175781 z "
     id="rect817" />
  <path
     style="opacity:1;vector-effect:none;fill:#c5c5c5;fill-opacity:1;fill-rule:nonzero;stroke:none;stroke-width:0.99999994;stroke-linecap:round;stroke-linejoin:miter;stroke-miterlimit:4;stroke-dasharray:none;stroke-dashoffset:19.99370003;stroke-opacity:1;paint-order:fill markers stroke"
     d="m 9.8036212,6.5079899 h 1.1984728 c 4e-6,0 7e-6,2.9e-6 7e-6,6.6e-6 v 2.972232 c 0,3.7e-6 -3e-6,6.6e-6 -7e-6,6.6e-6 H 9.8036212 c -3.6e-6,0 -6.6e-6,-2.9e-6 -6.6e-6,-6.6e-6 v -2.972232 c 0,-3.7e-6 3e-6,-6.6e-6 6.6e-6,-6.6e-6 z"
     id="rect823" />
  <path
     style="opacity:1;vector-effect:none;fill:#fea78c;fill-opacity:1;fill-rule:nonzero;stroke:none;stroke-width:0.99999994;stroke-linecap:round;stroke-linejoin:miter;stroke-miterlimit:4;stroke-dasharray:none;stroke-dashoffset:19.99370003;stroke-opacity:1;paint-order:fill markers stroke"
     d="M 8.6530751,2.9844408 H 12.22455 c 4e-6,0 7e-6,2.9e-6 7e-6,6.6e-6 v 3.5714752 c 0,3.6e-6 -3e-6,6.6e-6 -7e-6,6.6e-6 H 8.6530751 c -3.6e-6,0 -6.6e-6,-3e-6 -6.6e-6,-6.6e-6 V 2.9844474 c 0,-3.7e-6 3e-6,-6.6e-6 6.6e-6,-6.6e-6 z"
     id="rect821" />
  <path
     style="opacity:1;vector-effect:none;fill:#8d8cfe;fill-opacity:1;fill-rule:nonzero;stroke:none;stroke-width:0.99999994;stroke-linecap:round;stroke-linejoin:miter;stroke-miterlimit:4;stroke-dasharray:none;stroke-dashoffset:19.99370003;stroke-opacity:1;paint-order:fill markers stroke"
     d="M 8.6530751,9.4322958 H 12.22455 c 4e-6,0 7e-6,2.9e-6 7e-6,6.6e-6 v 3.5714756 c 0,3e-6 -3e-6,6e-6 -7e-6,6e-6 H 8.6530751 c -3.6e-6,0 -6.6e-6,-3e-6 -6.6e-6,-6e-6 V 9.4323024 c 0,-3.7e-6 3e-6,-6.6e-6 6.6e-6,-6.6e-6 z"
     id="rect819" />
  <path
     style="opacity:1;vector-effect:none;fill:#8cfe97;fill-opacity:1;fill-rule:nonzero;stroke:none;stroke-width:0.99999994;stroke-linecap:round;stroke-linejoin:miter;stroke-miterlimit:4;stroke-dasharray:none;stroke-dashoffset:19.99370003;stroke-opacity:1;paint-order:fill markers stroke"
     d="M 3.8591308,9.4322958 H 7.430606 c 3.6e-6,0 6.6e-6,2.9e-6 6.6e-6,6.6e-6 v 3.5714756 c 0,3e-6 -3e-6,6e-6 -6.6e-6,6e-6 H 3.8591308 c -3.7e-6,0 -6.6e-6,-3e-6 -6.6e-6,-6e-6 V 9.4323024 c 0,-3.7e-6 2.9e-6,-6.6e-6 6.6e-6,-6.6e-6 z"
     id="rect827" />
  <path
     id="path841"
     d="m 3.0231272,-0.01261526 h 1.0067172 c 3.4e-6,0 5.9e-6,6.78e-6 5.9e-6,1.543e-5 V 6.9385882 c 0,8.6e-6 -2.5e-6,1.54e-5 -5.9e-6,1.54e-5 H 3.0231272 c -3e-6,0 -5.5e-6,-6.8e-6 -5.5e-6,-1.54e-5 v -6.95118803 c 0,-8.65e-6 2.5e-6,-1.543e-5 5.5e-6,-1.543e-5 z"
     style="opacity:1;vector-effect:none;fill:#c5c5c5;fill-opacity:1;fill-rule:nonzero;stroke:none;stroke-width:0.99999988;stroke-linecap:round;stroke-linejoin:miter;stroke-miterlimit:4;stroke-dasharray:none;stroke-dashoffset:19.99370003;stroke-opacity:1;paint-order:fill markers stroke"
     inkscape:connector-curvature="0" />
  <path
     inkscape:connector-curvature="0"
     style="opacity:1;vector-effect:none;fill:#c5c5c5;fill-opacity:1;fill-rule:nonzero;stroke:none;stroke-width:0.99999988;stroke-linecap:round;stroke-linejoin:miter;stroke-miterlimit:4;stroke-dasharray:none;stroke-dashoffset:19.99370003;stroke-opacity:1;paint-order:fill markers stroke"
     d="m 7.0020954,2.9596354 v 1.0067172 c 0,3.4e-6 -6.7e-6,5.9e-6 -1.54e-5,5.9e-6 H 0.05089197 c -8.6e-6,0 -1.54e-5,-2.5e-6 -1.54e-5,-5.9e-6 V 2.9596354 c 0,-3e-6 6.8e-6,-5.5e-6 1.54e-5,-5.5e-6 H 7.00208 c 8.7e-6,0 1.54e-5,2.5e-6 1.54e-5,5.5e-6 z"
     id="path843" />
</svg>
