<?xml version="1.0" encoding="UTF-8" standalone="no"?>
<svg
   xmlns:dc="http://purl.org/dc/elements/1.1/"
   xmlns:cc="http://creativecommons.org/ns#"
   xmlns:rdf="http://www.w3.org/1999/02/22-rdf-syntax-ns#"
   xmlns:svg="http://www.w3.org/2000/svg"
   xmlns="http://www.w3.org/2000/svg"
   xmlns:sodipodi="http://sodipodi.sourceforge.net/DTD/sodipodi-0.dtd"
   xmlns:inkscape="http://www.inkscape.org/namespaces/inkscape"
   width="16"
   height="16"
   viewBox="0 0 16 16"
   fill="none"
   version="1.1"
   id="svg4"
   sodipodi:docname="class-dark.svg"
   inkscape:version="0.92.3 (2405546, 2018-03-11)">
  <metadata
     id="metadata10">
    <rdf:RDF>
      <cc:Work
         rdf:about="">
        <dc:format>image/svg+xml</dc:format>
        <dc:type
           rdf:resource="http://purl.org/dc/dcmitype/StillImage" />
        <dc:title></dc:title>
      </cc:Work>
    </rdf:RDF>
  </metadata>
  <defs
     id="defs8" />
  <sodipodi:namedview
     pagecolor="#ffffff"
     bordercolor="#666666"
     borderopacity="1"
     objecttolerance="10"
     gridtolerance="10"
     guidetolerance="10"
     inkscape:pageopacity="0"
     inkscape:pageshadow="2"
     inkscape:window-width="1403"
     inkscape:window-height="886"
     id="namedview6"
     showgrid="false"
     inkscape:zoom="20.85965"
     inkscape:cx="7.1046812"
     inkscape:cy="4.2816825"
     inkscape:window-x="0"
     inkscape:window-y="0"
     inkscape:window-maximized="0"
     inkscape:current-layer="svg4" />
  <g
     id="g829"
     transform="matrix(0.68294917,0,0,0.68294917,-2.3313442,5.1728051)"
     style="stroke-width:1.46423781">
    <path
       style="fill:#c5c5c5;fill-opacity:1;stroke:none;stroke-width:1.46423781px;stroke-linecap:butt;stroke-linejoin:miter;stroke-opacity:1"
       d="m 3.6846944,13.006728 v 1.79661 H 15.17622 l -0.0099,-1.838028 c -2.529213,-2.229562 -4.651293,-2.475775 -5.8545069,-2.433158 -1.2032136,0.04262 -3.3665825,-0.0019 -5.6271187,2.474576 z"
       id="path825"
       inkscape:connector-curvature="0"
       sodipodi:nodetypes="cccczc" />
    <path
       style="opacity:1;vector-effect:none;fill:#c5c5c5;fill-opacity:1;fill-rule:nonzero;stroke:none;stroke-width:1.46423781;stroke-linecap:round;stroke-linejoin:miter;stroke-miterlimit:4;stroke-dasharray:none;stroke-dashoffset:19.99370003;stroke-opacity:1;paint-order:fill markers stroke"
       d="m 12.396558,6.1931688 a 2.881356,2.881356 0 0 1 -2.8813554,2.881356 2.881356,2.881356 0 0 1 -2.881356,-2.881356 2.881356,2.881356 0 0 1 2.881356,-2.881356 2.881356,2.881356 0 0 1 2.8813554,2.881356 z"
       id="path827"
       inkscape:connector-curvature="0" />
  </g>
  <g
     style="stroke-width:1.46423781"
     transform="matrix(0.68294917,0,0,0.68294917,5.2910272,1.9608624)"
     id="g847">
    <path
       sodipodi:nodetypes="cccczc"
       inkscape:connector-curvature="0"
       id="path843"
       d="m 3.6846944,13.006728 v 1.79661 H 15.17622 l -0.0099,-1.838028 c -2.529213,-2.229562 -4.651293,-2.475775 -5.8545069,-2.433158 -1.2032136,0.04262 -3.3665825,-0.0019 -5.6271187,2.474576 z"
       style="fill:#c5c5c5;fill-opacity:1;stroke:none;stroke-width:1.46423781px;stroke-linecap:butt;stroke-linejoin:miter;stroke-opacity:1" />
    <path
       inkscape:connector-curvature="0"
       id="path845"
       d="m 12.396558,6.1931688 a 2.881356,2.881356 0 0 1 -2.8813554,2.881356 2.881356,2.881356 0 0 1 -2.881356,-2.881356 2.881356,2.881356 0 0 1 2.881356,-2.881356 2.881356,2.881356 0 0 1 2.8813554,2.881356 z"
       style="opacity:1;vector-effect:none;fill:#c5c5c5;fill-opacity:1;fill-rule:nonzero;stroke:none;stroke-width:1.46423781;stroke-linecap:round;stroke-linejoin:miter;stroke-miterlimit:4;stroke-dasharray:none;stroke-dashoffset:19.99370003;stroke-opacity:1;paint-order:fill markers stroke" />
  </g>
  <path
     style="fill:#c5c5c5;fill-opacity:1;stroke:none;stroke-width:1px;stroke-linecap:butt;stroke-linejoin:miter;stroke-opacity:1"
     d="M 3.9804688,5.2714942 C 3.158735,5.3006015 1.6805501,5.2696402 0.13671875,6.9609473 V 8.1875099 H 1.546875 A 2.6126997,2.6126997 0 0 1 4.0507812,6.3164161 2.6126997,2.6126997 0 0 1 6.5546875,8.1875099 H 7.984375 L 7.9785156,6.9316505 C 6.2511916,5.408973 4.8022027,5.2423889 3.9804688,5.2714942 Z"
     id="path849"
     inkscape:connector-curvature="0" />
  <path
     inkscape:connector-curvature="0"
     id="path851"
     d="M 6.0869353,2.307387 A 1.9678197,1.9678197 0 0 1 4.119116,4.2752067 1.9678197,1.9678197 0 0 1 2.1512963,2.307387 1.9678197,1.9678197 0 0 1 4.119116,0.33956733 1.9678197,1.9678197 0 0 1 6.0869353,2.307387 Z"
     style="opacity:1;vector-effect:none;fill:#c5c5c5;fill-opacity:1;fill-rule:nonzero;stroke:none;stroke-width:1;stroke-linecap:round;stroke-linejoin:miter;stroke-miterlimit:4;stroke-dasharray:none;stroke-dashoffset:19.99370003;stroke-opacity:1;paint-order:fill markers stroke" />
</svg>
