<?xml version="1.0" encoding="UTF-8" standalone="no"?>
<!-- Created with Inkscape (http://www.inkscape.org/) -->

<svg
   width="16"
   height="16"
   viewBox="0 0 4.2333332 4.2333333"
   version="1.1"
   id="svg1"
   xmlns="http://www.w3.org/2000/svg"
   xmlns:svg="http://www.w3.org/2000/svg">
  <defs
     id="defs1" />
  <g
     id="layer1">
    <path
       style="font-weight:bold;font-size:4.85774px;line-height:1.13;font-family:Arial;-inkscape-font-specification:'Arial Bold';text-align:center;letter-spacing:0.136624px;text-anchor:middle;fill:#31ce31;stroke-width:0.351134;stroke-linejoin:bevel"
       d="M 2.9504047,2.5768237 3.6311525,2.7926705 Q 3.4746042,3.3619369 3.1093249,3.6394543 2.7464176,3.9145997 2.186639,3.9145997 q -0.6926075,0 -1.1385328,-0.4720167 -0.44592536,-0.4743887 -0.44592536,-1.2950811 0,-0.8681312 0.44829726,-1.34726376 0.4482973,-0.48150449 1.1788559,-0.48150449 0.6380527,0 1.0365392,0.37713899 0.2371943,0.22296267 0.3557915,0.64042466 L 2.9266853,1.5023334 Q 2.8650148,1.2319318 2.6681435,1.0753836 2.4736441,0.91883531 2.1937548,0.91883531 q -0.3866268,0 -0.628565,0.27751739 -0.2395662,0.2775173 -0.2395662,0.8989665 0,0.6594002 0.2371943,0.9392896 0.2371943,0.2798893 0.6167052,0.2798893 0.2798894,0 0.4815045,-0.1778958 0.2016152,-0.1778957 0.2893771,-0.5597786 z"
       id="text1"
       aria-label="C" />
  </g>
</svg>
