<?xml version="1.0" encoding="UTF-8" standalone="no"?>
<svg
   xmlns:dc="http://purl.org/dc/elements/1.1/"
   xmlns:cc="http://creativecommons.org/ns#"
   xmlns:rdf="http://www.w3.org/1999/02/22-rdf-syntax-ns#"
   xmlns:svg="http://www.w3.org/2000/svg"
   xmlns="http://www.w3.org/2000/svg"
   xmlns:sodipodi="http://sodipodi.sourceforge.net/DTD/sodipodi-0.dtd"
   xmlns:inkscape="http://www.inkscape.org/namespaces/inkscape"
   width="16"
   height="16"
   viewBox="0 0 16 16"
   fill="none"
   version="1.1"
   id="svg4"
   sodipodi:docname="field-light-startable.svg"
   inkscape:version="0.92.3 (2405546, 2018-03-11)">
  <metadata
     id="metadata10">
    <rdf:RDF>
      <cc:Work
         rdf:about="">
        <dc:format>image/svg+xml</dc:format>
        <dc:type
           rdf:resource="http://purl.org/dc/dcmitype/StillImage" />
      </cc:Work>
    </rdf:RDF>
  </metadata>
  <defs
     id="defs8" />
  <sodipodi:namedview
     pagecolor="#ffffff"
     bordercolor="#666666"
     borderopacity="1"
     objecttolerance="10"
     gridtolerance="10"
     guidetolerance="10"
     inkscape:pageopacity="0"
     inkscape:pageshadow="2"
     inkscape:window-width="1920"
     inkscape:window-height="1001"
     id="namedview6"
     showgrid="false"
     inkscape:zoom="14.75"
     inkscape:cx="8"
     inkscape:cy="8"
     inkscape:window-x="-9"
     inkscape:window-y="-9"
     inkscape:window-maximized="1"
     inkscape:current-layer="svg4" />
  <path
     fill-rule="evenodd"
     clip-rule="evenodd"
     d="M1 6.39443L1.55279 5.5L8.55279 2H9.44721L14.4472 4.5L15 5.39443V9.89443L14.4472 10.7889L7.44721 14.2889H6.55279L1.55279 11.7889L1 10.8944V6.39443ZM6.5 13.1444L2 10.8944V7.17094L6.5 9.21639V13.1444ZM7.5 13.1444L14 9.89443V6.17954L7.5 9.21287V13.1444ZM9 2.89443L2.33728 6.22579L6.99725 8.34396L13.6706 5.22973L9 2.89443Z"
     fill="#007ACC"
     id="path2" />
  <path
     inkscape:connector-curvature="0"
     style="clip-rule:evenodd;fill:#89d185;fill-rule:evenodd"
     d="M 4.49998,13.909545 V 2.090455 l 9.00004,5.88124 z m 1.50023,-9.00003 4.81451,3.06218 -4.81451,3.11875 z"
     id="path2-0" />
</svg>
