<?xml version="1.0" encoding="UTF-8" standalone="no"?>
<svg
   xmlns:dc="http://purl.org/dc/elements/1.1/"
   xmlns:cc="http://creativecommons.org/ns#"
   xmlns:rdf="http://www.w3.org/1999/02/22-rdf-syntax-ns#"
   xmlns:svg="http://www.w3.org/2000/svg"
   xmlns="http://www.w3.org/2000/svg"
   xmlns:sodipodi="http://sodipodi.sourceforge.net/DTD/sodipodi-0.dtd"
   xmlns:inkscape="http://www.inkscape.org/namespaces/inkscape"
   width="16"
   height="16"
   viewBox="0 0 16 16"
   fill="none"
   version="1.1"
   id="svg4"
   sodipodi:docname="project-dark.svg"
   inkscape:version="0.92.3 (2405546, 2018-03-11)">
  <metadata
     id="metadata10">
    <rdf:RDF>
      <cc:Work
         rdf:about="">
        <dc:format>image/svg+xml</dc:format>
        <dc:type
           rdf:resource="http://purl.org/dc/dcmitype/StillImage" />
      </cc:Work>
    </rdf:RDF>
  </metadata>
  <defs
     id="defs8" />
  <sodipodi:namedview
     pagecolor="#ffffff"
     bordercolor="#666666"
     borderopacity="1"
     objecttolerance="10"
     gridtolerance="10"
     guidetolerance="10"
     inkscape:pageopacity="0"
     inkscape:pageshadow="2"
     inkscape:window-width="1920"
     inkscape:window-height="1001"
     id="namedview6"
     showgrid="false"
     inkscape:zoom="41.7193"
     inkscape:cx="10.059941"
     inkscape:cy="7.5644339"
     inkscape:window-x="-9"
     inkscape:window-y="-9"
     inkscape:window-maximized="1"
     inkscape:current-layer="svg4" />
  <path
     transform="rotate(-90)"
     style="opacity:1;vector-effect:none;fill:#c5c5c5;fill-opacity:1;fill-rule:nonzero;stroke:none;stroke-width:0.99999994;stroke-linecap:round;stroke-linejoin:miter;stroke-miterlimit:4;stroke-dasharray:none;stroke-dashoffset:19.99370003;stroke-opacity:1;paint-order:fill markers stroke"
     d="m -11.925139,6.519763 h 1.198473 c 4e-6,0 7e-6,2.9e-6 7e-6,6.6e-6 v 2.972232 c 0,3.7e-6 -3e-6,6.6e-6 -7e-6,6.6e-6 h -1.198473 c -3e-6,0 -6e-6,-2.9e-6 -6e-6,-6.6e-6 v -2.972232 c 0,-3.7e-6 3e-6,-6.6e-6 6e-6,-6.6e-6 z"
     id="rect825" />
  <path
     style="opacity:1;vector-effect:none;fill:none;fill-opacity:1;fill-rule:nonzero;stroke:#c5c5c5;stroke-width:0.99999994;stroke-linecap:round;stroke-linejoin:miter;stroke-miterlimit:4;stroke-dasharray:none;stroke-dashoffset:19.99370003;stroke-opacity:1;paint-order:fill markers stroke"
     d="m 2.271243,1.5179186 h 11.457514 c 4e-6,0 7e-6,2.9e-6 7e-6,6.6e-6 V 14.482075 c 0,3e-6 -3e-6,6e-6 -7e-6,6e-6 H 2.271243 c -3.6e-6,0 -6.6e-6,-3e-6 -6.6e-6,-6e-6 V 1.5179252 c 0,-3.7e-6 3e-6,-6.6e-6 6.6e-6,-6.6e-6 z"
     id="rect817" />
  <path
     style="opacity:1;vector-effect:none;fill:#c5c5c5;fill-opacity:1;fill-rule:nonzero;stroke:none;stroke-width:0.99999994;stroke-linecap:round;stroke-linejoin:miter;stroke-miterlimit:4;stroke-dasharray:none;stroke-dashoffset:19.99370003;stroke-opacity:1;paint-order:fill markers stroke"
     d="m 9.8036212,6.5079899 h 1.1984728 c 4e-6,0 7e-6,2.9e-6 7e-6,6.6e-6 v 2.972232 c 0,3.7e-6 -3e-6,6.6e-6 -7e-6,6.6e-6 H 9.8036212 c -3.6e-6,0 -6.6e-6,-2.9e-6 -6.6e-6,-6.6e-6 v -2.972232 c 0,-3.7e-6 3e-6,-6.6e-6 6.6e-6,-6.6e-6 z"
     id="rect823" />
  <path
     style="opacity:1;vector-effect:none;fill:#fea78c;fill-opacity:1;fill-rule:nonzero;stroke:none;stroke-width:0.99999994;stroke-linecap:round;stroke-linejoin:miter;stroke-miterlimit:4;stroke-dasharray:none;stroke-dashoffset:19.99370003;stroke-opacity:1;paint-order:fill markers stroke"
     d="M 8.6530751,2.9844408 H 12.22455 c 4e-6,0 7e-6,2.9e-6 7e-6,6.6e-6 v 3.5714752 c 0,3.6e-6 -3e-6,6.6e-6 -7e-6,6.6e-6 H 8.6530751 c -3.6e-6,0 -6.6e-6,-3e-6 -6.6e-6,-6.6e-6 V 2.9844474 c 0,-3.7e-6 3e-6,-6.6e-6 6.6e-6,-6.6e-6 z"
     id="rect821" />
  <path
     style="opacity:1;vector-effect:none;fill:#8d8cfe;fill-opacity:1;fill-rule:nonzero;stroke:none;stroke-width:0.99999994;stroke-linecap:round;stroke-linejoin:miter;stroke-miterlimit:4;stroke-dasharray:none;stroke-dashoffset:19.99370003;stroke-opacity:1;paint-order:fill markers stroke"
     d="M 8.6530751,9.4322958 H 12.22455 c 4e-6,0 7e-6,2.9e-6 7e-6,6.6e-6 v 3.5714756 c 0,3e-6 -3e-6,6e-6 -7e-6,6e-6 H 8.6530751 c -3.6e-6,0 -6.6e-6,-3e-6 -6.6e-6,-6e-6 V 9.4323024 c 0,-3.7e-6 3e-6,-6.6e-6 6.6e-6,-6.6e-6 z"
     id="rect819" />
  <path
     style="opacity:1;vector-effect:none;fill:#8cfe97;fill-opacity:1;fill-rule:nonzero;stroke:none;stroke-width:0.99999994;stroke-linecap:round;stroke-linejoin:miter;stroke-miterlimit:4;stroke-dasharray:none;stroke-dashoffset:19.99370003;stroke-opacity:1;paint-order:fill markers stroke"
     d="M 3.8591308,9.4322958 H 7.430606 c 3.6e-6,0 6.6e-6,2.9e-6 6.6e-6,6.6e-6 v 3.5714756 c 0,3e-6 -3e-6,6e-6 -6.6e-6,6e-6 H 3.8591308 c -3.7e-6,0 -6.6e-6,-3e-6 -6.6e-6,-6e-6 V 9.4323024 c 0,-3.7e-6 2.9e-6,-6.6e-6 6.6e-6,-6.6e-6 z"
     id="rect827" />
</svg>
