<?xml version="1.0" encoding="UTF-8" standalone="no"?>
<svg
   xmlns:dc="http://purl.org/dc/elements/1.1/"
   xmlns:cc="http://creativecommons.org/ns#"
   xmlns:rdf="http://www.w3.org/1999/02/22-rdf-syntax-ns#"
   xmlns:svg="http://www.w3.org/2000/svg"
   xmlns="http://www.w3.org/2000/svg"
   xmlns:sodipodi="http://sodipodi.sourceforge.net/DTD/sodipodi-0.dtd"
   xmlns:inkscape="http://www.inkscape.org/namespaces/inkscape"
   inkscape:version="1.0 (4035a4fb49, 2020-05-01)"
   sodipodi:docname="lightbulb_yellow.svg"
   id="svg6"
   version="1.1"
   fill="none"
   viewBox="0 0 16 16"
   height="16"
   width="16">
  <metadata
     id="metadata12">
    <rdf:RDF>
      <cc:Work
         rdf:about="">
        <dc:format>image/svg+xml</dc:format>
        <dc:type
           rdf:resource="http://purl.org/dc/dcmitype/StillImage" />
      </cc:Work>
    </rdf:RDF>
  </metadata>
  <defs
     id="defs10" />
  <sodipodi:namedview
     inkscape:current-layer="svg6"
     inkscape:window-maximized="1"
     inkscape:window-y="371"
     inkscape:window-x="2391"
     inkscape:cy="9.52498"
     inkscape:cx="4.1009897"
     inkscape:zoom="25.9375"
     showgrid="false"
     id="namedview8"
     inkscape:window-height="1001"
     inkscape:window-width="1920"
     inkscape:pageshadow="2"
     inkscape:pageopacity="0"
     guidetolerance="10"
     gridtolerance="10"
     objecttolerance="10"
     borderopacity="1"
     bordercolor="#666666"
     pagecolor="#ffffff"
     inkscape:document-rotation="0" />
  <path
     style="fill:#808080"
     sodipodi:nodetypes="ccsscscsscccsscccccscsscsc"
     id="path2"
     fill="#424242"
     d="m 11.155635,8.9306795 c -0.3389,0.33354 -0.5992,0.70472 -0.7822,1.1136605 -0.1781,0.40748 -0.2676,0.85018 -0.2676,1.32918 v 1.6003 c 0,0.1795 -0.0338,0.3491 -0.102101,0.5079 -0.0676,0.157 -0.1602992,0.2947 -0.2781988,0.4122 -0.1179,0.1175 -0.2560598,0.2098 -0.4134698,0.2771 -0.15917,0.0679 -0.32917,0.1016 -0.509,0.1016 h -1.60618 c -0.17982,0 -0.34982,-0.0337 -0.50899,-0.1016 -0.15742,-0.0673 -0.29553,-0.1596 -0.41345,-0.2771 -0.11793,-0.1175 -0.21066,-0.2552 -0.2782,-0.4122 -0.0683,-0.1588 -0.10214,-0.3284 -0.10214,-0.5079 v -1.6003 c 0,-0.4789 -0.09155,-0.9214 -0.27374,-1.32881 -0.1787,-0.4087305 -0.43721,-0.7805305 -0.776,-1.1140305 2.8077785,-0.5272147 3.9582678,-0.4217296 6.3112696,0 z M 9.1064554,10.77262 h -2.21295 v 2.2012 c 0,0.0811 0.02853,0.15 0.09021,0.2115 0.0617,0.0614 0.13119,0.0901 0.21317,0.0901 h 1.60618 c 0.08199,0 0.15148,-0.0287 0.21317,-0.0901 0.06169,-0.0615 0.09022,-0.1304 0.09022,-0.2115 z"
     clip-rule="evenodd"
     fill-rule="evenodd" />
  <path
     id="path1079"
     style="fill:#f5f500;fill-opacity:1;stroke-width:1.00157;stroke-dasharray:4.0063, 4.0063;stop-color:#000000"
     d="M 8.2739959,10.011117 C 5.7469519,10.115874 3.5289809,8.53419 3.4238659,6.0071613 3.3187499,3.4801319 5.2819049,1.3462644 7.8089199,1.2407907 10.335934,1.1353172 12.47008,3.0981697 12.575912,5.6251691 12.681744,8.152169 10.80098,9.9049255 8.2739959,10.011117"
     sodipodi:nodetypes="csssc" />
</svg>
