<?xml version="1.0" encoding="UTF-8" standalone="no"?>
<svg
   xmlns:dc="http://purl.org/dc/elements/1.1/"
   xmlns:cc="http://creativecommons.org/ns#"
   xmlns:rdf="http://www.w3.org/1999/02/22-rdf-syntax-ns#"
   xmlns:svg="http://www.w3.org/2000/svg"
   xmlns="http://www.w3.org/2000/svg"
   xmlns:sodipodi="http://sodipodi.sourceforge.net/DTD/sodipodi-0.dtd"
   xmlns:inkscape="http://www.inkscape.org/namespaces/inkscape"
   width="16"
   height="16"
   viewBox="0 0 16 16"
   fill="none"
   version="1.1"
   id="svg4"
   sodipodi:docname="user.svg"
   inkscape:version="0.92.3 (2405546, 2018-03-11)">
  <metadata
     id="metadata10">
    <rdf:RDF>
      <cc:Work
         rdf:about="">
        <dc:format>image/svg+xml</dc:format>
        <dc:type
           rdf:resource="http://purl.org/dc/dcmitype/StillImage" />
        <dc:title></dc:title>
      </cc:Work>
    </rdf:RDF>
  </metadata>
  <defs
     id="defs8" />
  <sodipodi:namedview
     pagecolor="#ffffff"
     bordercolor="#666666"
     borderopacity="1"
     objecttolerance="10"
     gridtolerance="10"
     guidetolerance="10"
     inkscape:pageopacity="0"
     inkscape:pageshadow="2"
     inkscape:window-width="1507"
     inkscape:window-height="908"
     id="namedview6"
     showgrid="true"
     inkscape:zoom="32"
     inkscape:cx="5.8031291"
     inkscape:cy="8.495702"
     inkscape:window-x="0"
     inkscape:window-y="0"
     inkscape:window-maximized="0"
     inkscape:current-layer="svg4"
     inkscape:snap-global="false">
    <inkscape:grid
       type="xygrid"
       id="grid821" />
  </sodipodi:namedview>
  <path
     style="color:#000000;font-style:normal;font-variant:normal;font-weight:normal;font-stretch:normal;font-size:medium;line-height:normal;font-family:sans-serif;font-variant-ligatures:normal;font-variant-position:normal;font-variant-caps:normal;font-variant-numeric:normal;font-variant-alternates:normal;font-feature-settings:normal;text-indent:0;text-align:start;text-decoration:none;text-decoration-line:none;text-decoration-style:solid;text-decoration-color:#000000;letter-spacing:normal;word-spacing:normal;text-transform:none;writing-mode:lr-tb;direction:ltr;text-orientation:mixed;dominant-baseline:auto;baseline-shift:baseline;text-anchor:start;white-space:normal;shape-padding:0;clip-rule:nonzero;display:inline;overflow:visible;visibility:visible;opacity:1;isolation:auto;mix-blend-mode:normal;color-interpolation:sRGB;color-interpolation-filters:linearRGB;solid-color:#000000;solid-opacity:1;vector-effect:none;fill:#c5c5c5;fill-opacity:1;fill-rule:nonzero;stroke:none;stroke-width:1;stroke-linecap:round;stroke-linejoin:miter;stroke-miterlimit:4;stroke-dasharray:none;stroke-dashoffset:19.99370003;stroke-opacity:1;paint-order:fill markers stroke;color-rendering:auto;image-rendering:auto;shape-rendering:auto;text-rendering:auto;enable-background:accumulate"
     d="M 10.317574,6.3046875 A 2.5776926,3 0 0 1 9.8174743,7.125 c 0.1861167,0.25533 0.3660207,0.5522528 0.5386987,0.8964844 0.662536,1.3207721 1.072426,3.1544816 1.080751,5.2226566 V 15 h 0.85923 V 13.226562 C 12.288007,11.01128 11.839341,9.0011555 11.091217,7.5097656 10.863176,7.0551646 10.601887,6.6539961 10.317574,6.3046875 Z m -4.6368261,0.00195 C 5.3970802,6.6555059 5.1363847,7.0560394 4.9087827,7.5097656 4.1606591,9.0011555 3.7119924,11.01128 3.7038457,13.226562 V 15 H 4.5630766 V 13.259766 C 4.5714012,11.191591 4.9225543,9.3930377 5.5850914,8.0722656 5.7698619,7.703924 5.9674406,7.3874003 6.1741345,7.1152344 A 2.5776926,3 0 0 1 5.6807479,6.3066406 Z"
     id="path812"
     inkscape:connector-curvature="0" />
  <path
     id="path832"
     d="M 11,5 A 3,3 0 0 1 8,8 3,3 0 0 1 5,5 3,3 0 0 1 8,2 3,3 0 0 1 11,5 Z"
     style="opacity:1;vector-effect:none;fill:none;fill-opacity:1;fill-rule:nonzero;stroke:#c5c5c5;stroke-width:1;stroke-linecap:round;stroke-linejoin:miter;stroke-miterlimit:4;stroke-dasharray:none;stroke-dashoffset:19.99370003;stroke-opacity:1;paint-order:fill markers stroke"
     inkscape:connector-curvature="0" />
</svg>
