<?xml version="1.0" encoding="UTF-8" standalone="no"?>
<svg
   xmlns:dc="http://purl.org/dc/elements/1.1/"
   xmlns:cc="http://creativecommons.org/ns#"
   xmlns:rdf="http://www.w3.org/1999/02/22-rdf-syntax-ns#"
   xmlns:svg="http://www.w3.org/2000/svg"
   xmlns="http://www.w3.org/2000/svg"
   xmlns:sodipodi="http://sodipodi.sourceforge.net/DTD/sodipodi-0.dtd"
   xmlns:inkscape="http://www.inkscape.org/namespaces/inkscape"
   width="16"
   height="16"
   viewBox="0 0 16 16"
   fill="none"
   version="1.1"
   id="svg4"
   sodipodi:docname="workspace-dark-repository.svg"
   inkscape:version="1.0 (4035a4fb49, 2020-05-01)">
  <metadata
     id="metadata10">
    <rdf:RDF>
      <cc:Work
         rdf:about="">
        <dc:format>image/svg+xml</dc:format>
        <dc:type
           rdf:resource="http://purl.org/dc/dcmitype/StillImage" />
      </cc:Work>
    </rdf:RDF>
  </metadata>
  <defs
     id="defs8" />
  <sodipodi:namedview
     inkscape:snap-global="false"
     pagecolor="#ffffff"
     bordercolor="#666666"
     borderopacity="1"
     objecttolerance="10"
     gridtolerance="10"
     guidetolerance="10"
     inkscape:pageopacity="0"
     inkscape:pageshadow="2"
     inkscape:window-width="1920"
     inkscape:window-height="1001"
     id="namedview6"
     showgrid="false"
     inkscape:zoom="24.542031"
     inkscape:cx="3.6144558"
     inkscape:cy="2.6119563"
     inkscape:window-x="-9"
     inkscape:window-y="-9"
     inkscape:window-maximized="1"
     inkscape:current-layer="svg4"
     inkscape:snap-bbox="true"
     inkscape:bbox-paths="true"
     inkscape:bbox-nodes="true"
     inkscape:snap-bbox-edge-midpoints="true"
     inkscape:snap-bbox-midpoints="true"
     inkscape:document-rotation="0" />
  <path
     style="vector-effect:none;fill:#c5c5c5;fill-opacity:1;fill-rule:nonzero;stroke:none;stroke-width:1;stroke-linecap:round;stroke-linejoin:miter;stroke-miterlimit:4;stroke-dasharray:none;stroke-dashoffset:19.9937;stroke-opacity:1;paint-order:fill markers stroke"
     d="m 6.519763,11.925139 v -1.198473 c 0,-4e-6 2.9e-6,-7e-6 6.6e-6,-7e-6 h 2.972232 c 3.7e-6,0 6.6e-6,3e-6 6.6e-6,7e-6 v 1.198473 c 0,3e-6 -2.9e-6,6e-6 -6.6e-6,6e-6 h -2.972232 c -3.7e-6,0 -6.6e-6,-3e-6 -6.6e-6,-6e-6 z"
     id="rect825" />
  <path
     style="vector-effect:none;fill:none;fill-opacity:1;fill-rule:nonzero;stroke:none;stroke-width:1;stroke-linecap:round;stroke-linejoin:miter;stroke-miterlimit:4;stroke-dasharray:none;stroke-dashoffset:19.9937;stroke-opacity:1;paint-order:fill markers stroke"
     d="m 2.271243,1.5179186 h 11.457514 c 4e-6,0 7e-6,2.9e-6 7e-6,6.6e-6 V 14.482075 c 0,3e-6 -3e-6,6e-6 -7e-6,6e-6 H 2.271243 c -3.6e-6,0 -6.6e-6,-3e-6 -6.6e-6,-6e-6 V 1.5179252 c 0,-3.7e-6 3e-6,-6.6e-6 6.6e-6,-6.6e-6 z"
     id="rect817" />
  <path
     style="vector-effect:none;fill:#c5c5c5;fill-opacity:1;fill-rule:nonzero;stroke:none;stroke-width:1;stroke-linecap:round;stroke-linejoin:miter;stroke-miterlimit:4;stroke-dasharray:none;stroke-dashoffset:19.9937;stroke-opacity:1;paint-order:fill markers stroke"
     d="m 9.8036212,6.5079899 h 1.1984728 c 4e-6,0 7e-6,2.9e-6 7e-6,6.6e-6 v 2.972232 c 0,3.7e-6 -3e-6,6.6e-6 -7e-6,6.6e-6 H 9.8036212 c -3.6e-6,0 -6.6e-6,-2.9e-6 -6.6e-6,-6.6e-6 v -2.972232 c 0,-3.7e-6 3e-6,-6.6e-6 6.6e-6,-6.6e-6 z"
     id="rect823" />
  <path
     style="vector-effect:none;fill:#fea78c;fill-opacity:1;fill-rule:nonzero;stroke:none;stroke-width:1;stroke-linecap:round;stroke-linejoin:miter;stroke-miterlimit:4;stroke-dasharray:none;stroke-dashoffset:19.9937;stroke-opacity:1;paint-order:fill markers stroke"
     d="M 8.6530751,2.9844408 H 12.22455 c 4e-6,0 7e-6,2.9e-6 7e-6,6.6e-6 v 3.5714752 c 0,3.6e-6 -3e-6,6.6e-6 -7e-6,6.6e-6 H 8.6530751 c -3.6e-6,0 -6.6e-6,-3e-6 -6.6e-6,-6.6e-6 V 2.9844474 c 0,-3.7e-6 3e-6,-6.6e-6 6.6e-6,-6.6e-6 z"
     id="rect821" />
  <path
     style="vector-effect:none;fill:#8d8cfe;fill-opacity:1;fill-rule:nonzero;stroke:none;stroke-width:1;stroke-linecap:round;stroke-linejoin:miter;stroke-miterlimit:4;stroke-dasharray:none;stroke-dashoffset:19.9937;stroke-opacity:1;paint-order:fill markers stroke"
     d="M 8.6530751,9.4322958 H 12.22455 c 4e-6,0 7e-6,2.9e-6 7e-6,6.6e-6 v 3.5714756 c 0,3e-6 -3e-6,6e-6 -7e-6,6e-6 H 8.6530751 c -3.6e-6,0 -6.6e-6,-3e-6 -6.6e-6,-6e-6 V 9.4323024 c 0,-3.7e-6 3e-6,-6.6e-6 6.6e-6,-6.6e-6 z"
     id="rect819" />
  <path
     style="vector-effect:none;fill:#8cfe97;fill-opacity:1;fill-rule:nonzero;stroke:none;stroke-width:1;stroke-linecap:round;stroke-linejoin:miter;stroke-miterlimit:4;stroke-dasharray:none;stroke-dashoffset:19.9937;stroke-opacity:1;paint-order:fill markers stroke"
     d="M 3.8591308,9.4322958 H 7.430606 c 3.6e-6,0 6.6e-6,2.9e-6 6.6e-6,6.6e-6 v 3.5714756 c 0,3e-6 -3e-6,6e-6 -6.6e-6,6e-6 H 3.8591308 c -3.7e-6,0 -6.6e-6,-3e-6 -6.6e-6,-6e-6 V 9.4323024 c 0,-3.7e-6 2.9e-6,-6.6e-6 6.6e-6,-6.6e-6 z"
     id="rect827" />
  <path
     id="rect12963"
     style="fill:#c5c5c5;fill-opacity:1;stroke:none;stroke-width:1.21761;stroke-opacity:0"
     d="m 13.38559,1.0179183 h 0.686923 c 0.08656,0 0.156251,0.069688 0.156251,0.1562512 V 14.82583 c 0,0.08656 -0.06969,0.156251 -0.156251,0.156251 H 13.38559 c -0.08656,0 -0.156251,-0.06969 -0.156251,-0.156251 V 1.1741695 c 0,-0.086563 0.06969,-0.1562512 0.156251,-0.1562512 z" />
  <path
     id="rect12963-0"
     style="fill:#c5c5c5;fill-opacity:1;stroke:none;stroke-width:1.01131;stroke-opacity:0"
     d="m 1.8790255,10.627123 h 0.7838468 c 0.059715,0 0.1077894,0.02173 0.1077894,0.04873 v 4.257496 c 0,0.027 -0.048074,0.04873 -0.1077894,0.04873 H 1.8790255 c -0.059715,0 -0.1077893,-0.02173 -0.1077893,-0.04873 v -4.257497 c 0,-0.027 0.048074,-0.04873 0.1077893,-0.04873 z" />
  <rect
     rx="0.090976112"
     style="fill:#c5c5c5;fill-opacity:1;stroke:none;stroke-width:0.929094;stroke-opacity:0"
     id="rect12963-05"
     width="0.99942553"
     height="4.3885083"
     x="-2.0173438"
     y="9.8402576"
     ry="0.090976112"
     transform="rotate(-90)" />
  <path
     id="rect12963-05-5"
     style="fill:#c5c5c5;fill-opacity:1;stroke:none;stroke-width:1.15005;stroke-opacity:0"
     d="m 1.7712362,14.842689 v -0.72064 c 0,-0.07722 0.062169,-0.139393 0.1393928,-0.139393 h 12.178743 c 0.07722,0 0.139392,0.06217 0.139392,0.139393 v 0.72064 c 0,0.07722 -0.06217,0.139392 -0.139392,0.139392 H 1.910629 c -0.077224,0 -0.1393928,-0.06217 -0.1393928,-0.139392 z" />
  <g
     style="fill:#fff41c;fill-opacity:1"
     id="g877">
    <path
       d="m 0.33281831,2.0630498 0.6425487,-0.6132946 c 0.0349787,-0.033386 0.0912972,-0.033385 0.12627499,2e-7 L 6.6179583,6.714916 c 0.034979,0.033386 0.034979,0.08714 2e-7,0.1205257 L 5.9754097,7.4487352 c -0.034978,0.03339 -0.091297,0.03338 -0.126275,0 L 0.33281831,2.1835756 c -0.0349787,-0.033386 -0.0349787,-0.08714 0,-0.1205258 z"
       style="fill:#fff41c;fill-opacity:1;stroke:none;stroke-width:0.828919;stroke-opacity:0"
       id="rect12963-05-8" />
    <path
       d="M 2.685724,7.6992182 V 6.5824203 c 0,-0.024969 0.020925,-0.045071 0.046916,-0.045071 h 4.099082 c 0.025991,0 0.046916,0.020102 0.046916,0.045071 v 1.1167979 c 0,0.02497 -0.020925,0.04507 -0.046916,0.04507 H 2.7326404 c -0.025991,0 -0.046916,-0.0201 -0.046916,-0.04507 z"
       style="fill:#fff41c;fill-opacity:1;stroke:none;stroke-width:0.595087;stroke-opacity:0"
       id="rect12963-05-50" />
    <path
       d="M 6.8317223,7.7442892 H 5.6692064 c -0.025991,0 -0.046916,-0.0201 -0.046916,-0.04507 V 3.7613406 c 0,-0.024969 0.020925,-0.045071 0.046916,-0.045071 h 1.1625159 c 0.025991,0 0.046916,0.020102 0.046916,0.045071 v 3.9378776 c 0,0.02497 -0.020925,0.04507 -0.046916,0.045071 z"
       style="fill:#fff41c;fill-opacity:1;stroke:none;stroke-width:0.595087;stroke-opacity:0"
       id="rect12963-05-50-8" />
    <path
       d="M 1.2094328,5.1641874 H 0.04691696 C 0.02092577,5.1641874 5.6568186e-7,5.1440851 5.6568186e-7,5.1191161 v -3.937879 c 0,-0.02497 0.0209252043181,-0.045071 0.0469163943181,-0.045071 H 1.2094328 c 0.025991,0 0.046916,0.020102 0.046916,0.045071 v 3.937879 c 0,0.024969 -0.020925,0.045071 -0.046916,0.045071 z"
       style="fill:#fff41c;fill-opacity:1;stroke:none;stroke-width:0.595087;stroke-opacity:0"
       id="rect12963-05-50-8-5" />
    <path
       d="M 5.6568186e-7,2.2980363 V 1.1812369 c 0,-0.02497 0.0209252043181,-0.045071 0.0469163943181,-0.045071 H 4.1459986 c 0.025991,0 0.046916,0.020102 0.046916,0.045071 v 1.1167994 c 0,0.024969 -0.020925,0.045071 -0.046916,0.045071 H 0.04691696 C 0.02092577,2.3431076 5.6568186e-7,2.3230053 5.6568186e-7,2.2980363 Z"
       style="fill:#fff41c;fill-opacity:1;stroke:none;stroke-width:0.595087;stroke-opacity:0"
       id="rect12963-05-50-1" />
  </g>
</svg>
